<?xml version="1.0" encoding="UTF-8"?><svg id="Layer_2" xmlns="http://www.w3.org/2000/svg" viewBox="0 0 158.5658 101.8072"><g id="Components"><g id="f5661405-7c56-4feb-9a9c-9e8353911a5f_4"><path d="m19.9765,43.5781c-.0084.0488-.0168.0976-.0252.1464.2748.0831.5482.1713.8247.2486,1.9875.5553,3.898,1.3045,5.7139,2.2853,1.7553.9481,3.3895,2.0583,4.685,3.6039.9058,1.0807,1.5755,2.2817,1.6975,3.7102.1486,1.7403-.147,3.4247-.9593,4.9704-1.8926,3.6012-4.8583,5.6047-8.9746,5.6306-7.2599.0457-14.5203.0129-21.7805.0129-.1638,0-.3275-.0015-.4913.0005-.6399.0078-.665.0286-.6653.6921-.0019,3.5628-.0018,7.1257-.0002,10.6885.0003.7186.0132.7269.7344.7313.0182.0001.0364,0,.0546,0,7.4603,0,14.9207.0079,22.381-.0098.9784-.0023,1.9644-.0802,2.9333-.2182,4.4515-.6341,8.3663-2.4686,11.6608-5.5106,4.7906-4.4234,7.237-9.9167,7.2564-16.4612.0107-3.6164-1.0552-6.9017-2.9882-9.9357-.2772-.435-.5936-.5963-1.1079-.5951-6.8052.0151-13.6105.01-20.4158.01-.1778,0-.3555,0-.5333,0Zm39.9425.0578c-.2469-.0251-.4053-.0551-.5637-.0552-3.7667-.0027-7.5334-.0036-11.3001-.0006-.5822.0005-.6372.0292-.7145.5846-.1403,1.0071-.2999,2.0162-.353,3.0296-.0999,1.9081-.0239,3.8124.2777,5.7067.9112,5.7223,3.3806,10.67,7.3839,14.8516,2.5603,2.6744,5.557,4.7317,8.9566,6.2034,3.0384,1.3154,6.218,2.0872,9.5191,2.1868,3.327.1004,6.6593.0312,9.9892.0313.5267,0,.5576-.042.5743-.5548.0018-.0545.001-.1091.001-.1636,0-3.563,0-7.126,0-10.6889,0-.0727.0018-.1456-.0025-.2181-.0239-.4094-.069-.4546-.4907-.4758-.1452-.0073-.2911-.003-.4366-.003-2.6931-.0002-5.3863.0119-8.0793-.0075-.8345-.006-1.6787-.0319-2.5009-.1607-3.9416-.6177-7.2247-2.451-9.6985-5.5795-3.3087-4.1844-4.1942-8.889-2.749-14.0264.0532-.1891.1071-.3781.1869-.6599Zm40.9751.0074c-.2629-.0238-.4918-.0622-.7207-.0625-3.5294-.0038-7.0587-.0028-10.5881-.0021-.1454,0-.2911.0038-.4362.0129-.2157.0135-.3302.1313-.3378.3483-.0045.1271-.0092.2543-.0092.3814-.0004,10.3776-.0007,20.7551.0002,31.1327,0,.7193.0039.722.7324.7222,3.5475.001,7.0951.0005,10.6426.0004.091,0,.1821.0024.2728-.0024.4176-.0221.4535-.0591.475-.4849.0037-.0725.002-.1454.002-.2181,0-10.3957.0003-20.7915-.0012-31.1872,0-.1966-.0191-.3931-.0319-.6408Zm54.5986-.0219c-.3169-.0194-.5112-.0415-.7055-.0416-4.2915-.0019-8.583.0038-12.8745-.0092-.4512-.0014-.7289.1462-.9696.5338-3.0958,4.9858-6.2067,9.9623-9.3115,14.9426-.0807.1295-.136.2747-.2438.4962.3013.0141.5121.0334.7227.0324,4.2907-.0212,8.5813-.0507,12.872-.0587.4247-.0008.6554-.1651.8697-.5072,3.0967-4.9425,6.2047-9.8779,9.309-14.8157.0946-.1505.1786-.3077.3314-.5725Zm-103.6739-10.4607c.0232.0468.0464.0936.0696.1403h.8059c15.739,0,31.4779,0,47.2169,0,.1456,0,.2912.0023.4367-.0011.5438-.0126.5743-.0387.5777-.6041.0054-.9088.0021-1.8177.0016-2.7266-.0002-.2908-.0065-.5816-.0042-.8724.0021-.2719-.1305-.4001-.3997-.3989-.2001.0009-.4002-.0047-.6004-.0047-14.4653-.0002-28.9306-.0002-43.3959-.0002-.1456,0-.2916.0082-.4366-.0008-.2912-.0182-.5187.0834-.7313.2889-1.193,1.1527-2.2942,2.3843-3.2631,3.7317-.1022.1422-.1852.2982-.2772.4477Zm49.0751-7.3686c.0127-.2406.0315-.4371.0321-.6337.003-1.018.0031-2.0361.001-3.0541-.0019-.8954.0838-.8979-.8897-.8977-8.3345.0013-16.6689.0028-25.0034-.0012-1.5123-.0007-3.0175.083-4.5142.3002-3.8739.5622-7.4626,1.8943-10.7658,3.9923-.096.061-.1709.155-.2744.2509.5402.1631,35.7276.2469,40.8541.1093.1758-.0047.3507-.0405.5605-.0659ZM6.6221,36.1322c-.0132.0399-.0265.0798-.0397.1197.0685.0793.1301.166.2066.2368,1.6752,1.5513,3.5184,2.8712,5.503,3.9991.3122.1774.6264.2538.9836.2536,8.4215-.0052,16.8431-.0038,25.2646-.0052.174,0,.3479-.0174.6055-.0312-.1296-.1624-.1943-.2656-.2796-.3471-1.5574-1.4872-3.2629-2.7803-5.0979-3.9082-.3734-.2296-.7466-.3237-1.1814-.3233-8.4579.0078-16.9158.0058-25.3737.0058h-.5909Zm20.0447-2.8312c.0106-.0386.0212-.0771.0318-.1157-.1448-.0599-.2861-.1308-.435-.1778-.7458-.2354-1.4909-.4736-2.2411-.6944-2.5815-.7596-5.0356-1.7969-7.263-3.3248-.299-.2051-.6021-.3-.9644-.2994-4.5672.0067-9.1344.004-13.7015.0057-.1756,0-.3511.0215-.5463.0342.0093.1222-.0017.1985.0223.2616.5512,1.4536,1.2968,2.8032,2.2153,4.0553.0923.1259.2907.1974.4541.2413.1532.0411.3252.0138.4889.0138,7.1328.0003,14.2656.0002,21.3984.0002h.5406Zm-5.0515,64.4825c-.0395.0088-.079.0177-.1186.0265-.0712-.1627-.148-.3233-.2127-.4885-.5696-1.4552-1.1373-2.9112-1.705-4.3672-.5347-1.3713-1.076-2.7401-1.5981-4.1163-.128-.3374-.3173-.4911-.6874-.4736-.5082.024-1.0184.0006-1.5276.0075-.5243.0071-.5574.0443-.573.5546-.0022.0726-.001.1454-.001.218,0,3.8705,0,7.7409.0003,11.6114,0,.1271.0052.2543.0067.3814.0031.248.1339.3615.3762.3621.2546.0007.5092.0057.7638.0055q.8495-.0008.8514-.8311c.0008-2.762,0-5.524.0011-8.2861,0-.1885.0114-.3771.0175-.5656.1648.1193.2325.2429.282.3733.6456,1.6985,1.2881,3.3983,1.9327,5.0973.4769,1.2572.9635,2.5109,1.4282,3.7727.1193.324.3065.4578.648.4435.4358-.0182.8729-.003,1.3094-.0039q.8068-.0016.8086-.8153c.0006-3.8341.0003-7.6682.0002-11.5024,0-.1272.0047-.2549-.0042-.3815-.0254-.3578-.0696-.4101-.4184-.4298-.272-.0153-.5455-.007-.8183-.0061-.7579.0024-.7609.003-.7612.7514-.0014,2.6893-.0006,5.3787-.0006,8.068,0,.198,0,.396,0,.594Zm83.438-57.0895c.2655.0185.443.0415.6205.0416,3.9835.002,7.967-.0027,11.9505.008.3891.001.6328-.1307.8456-.4562.9633-1.4724,2.1425-2.7499,3.5514-3.8103.0975-.0734.2109-.1255.317-.1875-.0293-.0414-.0586-.0828-.0879-.1242-.1201-.011-.2401-.0315-.3602-.0316-4.8384-.0016-9.6768.003-14.5152-.0095-.3916-.001-.6067.1424-.7466.4856-.4731,1.1602-.9582,2.3156-1.4301,3.4763-.066.1623-.0838.3441-.145.6078Zm-56.8671-.0122c.2172.0225.3744.0529.5317.053,4.0383.0026,8.0766-.0016,12.1148.0084.3534.0009.5667-.1281.7542-.4177.9671-1.4933,2.1586-2.7826,3.5793-3.8585.0907-.0687.1609-.1646.2893-.2987-.2052-.0163-.3287-.0348-.4521-.0348-4.8205-.0014-9.6409.0021-14.4614-.0073-.3761-.0007-.6139.1094-.7591.4673-.4779,1.1777-.9751,2.3476-1.4568,3.5238-.0659.1608-.0858.3404-.1398.5645ZM13.4022,25.8189c-.0136-.1334-.0085-.1731-.0225-.204-.0449-.0989-.0934-.1965-.1468-.2911-.4432-.7852-.725-1.6255-.8229-2.5202-.0432-.3955-.0383-.797-.0403-1.1958-.0013-.2704-.1159-.4059-.3896-.4033-.1453.0014-.2907-.0045-.4361-.0046-1.8175-.0004-3.6351-.0003-5.4526-.0002-1.7448,0-3.4897-.0028-5.2345.0025-.534.0016-.5923.0597-.6107.5946-.0427,1.2398.1186,2.4627.3183,3.6824.043.2626.1893.3768.4448.3767.109,0,.2181.0046.3271.0046,3.8168.0003,7.6337.0008,11.4505-.0015.1933-.0001.3866-.0246.6155-.0401Zm75.4408,14.8665c.2155.0221.3578.0493.5001.0494,3.6721.0024,7.3441.0036,11.0162,0,.5242-.0005.5608-.0398.5653-.5585.0076-.8898.003-1.7797.0026-2.6695-.0002-.3269-.0065-.6537-.0036-.9806.0024-.2743-.1304-.3992-.401-.3906-.0907.0029-.1817-.003-.2726-.0031-3.5993-.0002-7.1987-.0009-10.798.002-.1915.0002-.3831.0322-.609.0525v4.4983Zm-24.3388,47.7183c-.2739-.0139-.471-.0324-.6681-.0326-2.2902-.002-4.5804-.0013-6.8706-.0013-.0727,0-.1455-.0015-.2181.0016-.4606.0195-.5049.0573-.5226.498-.0102.2538-.0096.5086-.0008.7625.0157.4568.0542.502.5046.5093.636.0104,1.2723.0006,1.9084.0058.1945.0016.3889.0241.6282.04.0174.2711.0448.5007.045.7303.0028,3.2321.0019,6.4643.0022,9.6964,0,.1634.0063.3268.0043.4902-.0034.2713.1295.3988.399.3976.3453-.0015.6907.0044,1.036.0031.7237-.0026.7259-.0057.7306-.7292.0009-.1453.0002-.2905.0002-.4358,0-3.0869,0-6.1737.0001-9.2606,0-.1634-.0057-.3273.004-.4902.023-.3881.0582-.4319.4581-.439.6541-.0115,1.3087-.0002,1.9629-.0075.1911-.0021.382-.035.5966-.0561v-1.6828Zm34.4218.0467c-.5659-.1365-7.7825-.1094-8.2337.0453-.0511.5171-.0909,1.0478.0352,1.6297,1.0206.0141,2.0093.0277,3.0363.0419.0163.3066.0391.5377.0393.7689.0024,3.2152.0015,6.4303.0019,9.6455,0,.1816.0048.3632.0063.5448.002.2426.1196.37.3663.3716.2909.002.5817.0068.8726.0067q.8676-.0003.8688-.8677c.0005-3.2333-.001-6.4667.0027-9.7.0003-.2456.0348-.4911.0558-.7683,1.029-.0656,2.0066.027,2.9516-.0546.1521-.5825.1432-1.23-.0032-1.6639Zm37.2704,7.3552h.0011c0-1.7071-.0033-3.4141.0021-5.1212.0016-.4963.0395-.5312.5239-.5368.6907-.008,1.3817.0045,2.0722-.0076.4015-.0071.4396-.0519.4598-.4382.0123-.2355.0073-.4721.0039-.7081-.0086-.5914-.0308-.6126-.6151-.6236-.0363-.0007-.0727-.0004-.1091-.0004-2.2905,0-4.581-.0002-6.8714.0003-.1272,0-.2544.0046-.3816.0081-.2211.006-.3335.1223-.3364.3408-.0042.3268-.0157.6541-.0033.9803.0147.387.0585.4338.4557.4409.6724.0119,1.3452.0029,2.0177.0056q.6628.0027.6683.6689c.0012.1453.0003.2906.0003.4358,0,3.1054,0,6.2108.0001,9.3162,0,.1634-.0058.3274.0044.4902.0239.3789.0685.4275.4626.4429.3449.0134.6907.0088,1.036.0038.5749-.0083.6059-.0358.6073-.6314.004-1.6889.0014-3.3778.0014-5.0667Zm-133.9863-.8719c0-1.9081.0002-3.8162-.0004-5.7244,0-.1635-.0042-.327-.0082-.4905-.0053-.2189-.1168-.3367-.3376-.3402-.3273-.0051-.6547-.009-.9821-.0085-.7748.0012-.777.0024-.7772.7901-.0008,3.8526-.0004,7.7052-.0002,11.5578,0,.1272.0062.2544.0043.3815-.0039.2696.1246.4022.3966.4007.4365-.0024.873-.0023,1.3095,0,.2757.0014.3948-.1402.3911-.4061-.002-.1453.0039-.2907.0039-.4361.0003-1.9081.0002-3.8162.0002-5.7244Zm76.4479.0276c0-1.9089.0002-3.8178-.0003-5.7267,0-.1636-.0054-.3271-.0065-.4907-.0017-.2452-.1243-.3667-.3695-.3678-.3093-.0014-.6186-.0064-.928-.0061q-.8058.0009-.8075.8148c-.0006,3.836-.0004,7.672,0,11.5079,0,.1454.0052.2908.0064.4362.0021.2445.1242.3681.3693.3691.4185.0017.8373.0138,1.2554.0018.4135-.0118.457-.0651.4777-.4847.0072-.1451.0029-.2908.0029-.4363.0001-1.8725,0-3.7451,0-5.6176Z"/><path d="m158.5658,12.0309c-.3271.0085-.6542.0243-.9813.0243-44.9445.0011-89.889.0015-134.8335-.0004-1.9318,0-3.7562.4014-5.4266,1.3976-1.7324,1.0331-3.0807,2.4358-3.9272,4.2705-.2402.5207-.5388.6598-1.0802.6565-3.6573-.022-7.3148-.0115-10.9722-.0115-.2136,0-.4271,0-.7112,0,.027-.2638.0297-.4577.0685-.6441.7948-3.8163,2.4414-7.2162,5.0158-10.1529C9.152,3.6535,13.4455,1.2377,18.5667.2889,19.7503.0696,20.9462-.0009,22.1509,0c9.4438.0073,18.8876.004,28.3314.004,35.7191,0,71.4381,0,107.1572.0011.3088,0,.6175.0173.9263.0265v11.9993Z"/><path d="m158.5658,76.1724c-9.3541.0007-18.7085.0444-28.0622-.0167-4.4279-.0289-8.5888-1.2439-12.4625-3.3873-4.0749-2.2546-7.375-5.3506-9.8964-9.2642-2.1905-3.4-3.5555-7.1087-4.0889-11.1185-.3619-2.7209-.3186-5.4371.1259-8.1463.1006-.6132.1433-.6591.7691-.6596,3.7307-.0029,7.4614-.0021,11.1922.0005.1761.0001.3522.0291.6035.0512-.0628.2608-.0996.4674-.1623.6657-.4478,1.4157-.6784,2.8738-.6703,4.3494.0184,3.3305.9652,6.3875,2.9557,9.0764,2.5426,3.4347,5.9364,5.5125,10.1695,6.185.5907.0939,1.1943.1501,1.7921.1506,9.2449.0089,18.4897.0056,27.7346.0052v12.1083Z"/><path d="m158.5658,33.3023c-16.5901-.0062-33.1801-.0124-49.7702-.021-.0292,0-.0584-.035-.1214-.0753.0502-.1032.0889-.2205.1571-.317,1-1.4142,2.1413-2.7072,3.3753-3.921.1931-.1899.4084-.2933.6826-.2756.1449.0094.291.0007.4365.0007,14.8259,0,29.6518-.0002,44.4776.0011.2542,0,.5083.0173.7625.0265v4.5815Z"/><path d="m158.5658,25.8846c-.2908-.0079-.5816-.0228-.8723-.0228-13.5386-.0011-27.0773-.0009-40.6159-.0018-.2454,0-.4908-.0121-.7363-.0186-.0096-.0396-.0192-.0793-.0288-.1189.1395-.1013.2734-.2118.4194-.3027,3.546-2.2072,7.3843-3.5891,11.5464-4.0176,1.1736-.1208,2.3584-.1846,3.5382-.1867,8.6436-.0153,17.2872-.0081,25.9308-.0088.2729,0,.5457-.0083.8185-.0127v4.6906Z"/><path d="m158.5658,38.7565c-.3151.5104-.6467,1.0115-.9397,1.5343-.1945.347-.4561.4551-.8435.4532-2.6023-.013-5.2046-.0066-7.807-.0066-1.7288,0-3.4577,0-5.1865,0h-.6534c.0878-.1984.1243-.3162.1872-.4178.7759-1.2519,1.564-2.4964,2.3287-3.7551.193-.3178.4225-.44.7943-.4388,4.0399.0127,8.0799.0107,12.1199.0127,0,.8727,0,1.7453,0,2.618Z"/><path d="m114.0149,101.8072c-.2393-.083-.4761-.1747-.7185-.2475-1.1008-.3306-1.8175-1.0522-2.1246-2.1488-.1261-.4503-.2113-.9282-.2145-1.3942-.0205-3.0178-.0151-6.0357-.0131-9.0536.0004-.5519.0391-.5841.5908-.5915.382-.0051.7642.0031,1.1463.0049.2469.0012.365.1275.3662.3711.0008.1636.0062.3271.0063.4907.0004,2.7452-.0044,5.4904.0054,8.2356.0015.4157.037.8374.1148,1.2453.1765.9257.8158,1.4236,1.783,1.4362.9641.0125,1.5749-.4247,1.7896-1.3435.0898-.3843.1114-.7914.1127-1.1883.0091-2.8179.0045-5.6358.0054-8.4537q.0003-.7986.8233-.8c.273-.0004.5461-.0055.8189.0022.474.0133.5107.0546.5265.5462.0029.0908.0012.1818.0012.2727,0,2.727.0125,5.4541-.0095,8.181-.0051.6312-.067,1.2756-.2096,1.8892-.2874,1.2372-1.0702,2.0349-2.324,2.3451-.2105.0521-.4137.1333-.6203.2011-.6188,0-1.2375,0-1.8563,0Z"/><path d="m39.3266,101.8072c-.1866-.0687-.3694-.1514-.5605-.204-1.4699-.4043-2.2321-1.4202-2.4807-2.871-.055-.321-.0588-.6512-.0796-.9776-.0124-.1952.0818-.3182.2832-.3204.5092-.0056,1.0186-.0041,1.5279-.0003.2281.0017.3043.1434.3272.3527.0374.342.0594.6916.1501,1.0208.2795,1.0141,1.2925,1.5477,2.4284,1.3067,1.0313-.2187,1.63-1.0883,1.5189-2.1307-.1046-.9809-.625-1.5996-1.534-1.9223-.5999-.213-1.2059-.4095-1.8016-.6334-.7554-.2839-1.4658-.646-1.993-1.2864-.6573-.7984-.8041-1.7412-.7064-2.724.1824-1.8349,1.3002-2.9643,3.1264-3.2553.8047-.1282,1.5969-.1006,2.3824.0876,1.7329.4151,2.3175,1.6987,2.3236,3.2428.0011.2768-.1342.3925-.4029.3899-.4548-.0045-.9097-.0034-1.3645-.0002-.2386.0017-.3813-.0945-.3899-.3468-.0019-.0545-.0055-.1089-.0103-.1632-.1279-1.447-1.5456-2.1533-2.7873-1.3785-.1792.1118-.3475.2743-.4614.4515-.5862.9113-.286,2.2655.6309,2.8393.2909.1821.6093.3273.9288.4551.5739.2296,1.1669.4131,1.7354.6547.416.1768.8279.3826,1.2019.6343.7198.4844,1.1048,1.2029,1.2169,2.0479.0984.742.0679,1.484-.1507,2.2135-.3285,1.096-1.0425,1.8089-2.1122,2.1785-.3596.1243-.727.2264-1.0908.3386h-1.8563Z"/><path d="m158.5658,101.4799c-.2542.0084-.5084.024-.7626.0242-1.9461.0019-3.8923.0034-5.8384-.0009-.5596-.0012-.5996-.0377-.6-.5822-.0034-3.9974-.0034-7.9948.0004-11.9923.0005-.5124.0466-.5553.5683-.5565,1.9825-.0047,3.965-.0046,5.9475-.0002.5527.0012.5786.0341.586.5917.0038.2905-.0018.5813-.0104.8718-.002.0693-.033.1378-.0643.2596-.206.0165-.4166.0469-.6273.0478-1.1458.0048-2.2917.0023-3.4376.0026-.1273,0-.2551-.0049-.3818.0042-.3523.0253-.4044.0645-.4139.4304-.0151.5811-.0064,1.1628-.0069,1.7442-.0003.3089-.0075.6181.004.9266.0157.4214.0628.474.4765.4848.4908.0129.9821.0046,1.4732.0049.7457.0006,1.4915-.0059,2.2371.0034.4616.0058.5019.051.5165.4975.0089.2723.0081.5452.0005.8176-.0131.4705-.0548.516-.5503.5199-.9275.0074-1.8552.0023-2.7828.0029-.3092.0002-.6189-.0085-.9275.0055-.3622.0164-.4343.0685-.4382.4096-.0127,1.1082-.0128,2.2167,0,3.3249.0039.3364.0724.3889.4487.3941.8183.0113,1.6369.0032,2.4554.0058.7092.0023,1.4184.0083,2.1277.0127v1.7453Z"/><path d="m19.9765,43.5781c.1778,0,.3555,0,.5333,0,6.8053,0,13.6106.0051,20.4158-.01.5144-.0011.8308.1602,1.1079.5951,1.9331,3.034,2.9989,6.3193,2.9882,9.9357-.0194,6.5445-2.4659,12.0378-7.2564,16.4612-3.2945,3.042-7.2094,4.8766-11.6608,5.5106-.9689.138-1.9549.2159-2.9333.2182-7.4603.0177-14.9206.0098-22.381.0098-.0182,0-.0364,0-.0546,0-.7212-.0044-.734-.0126-.7344-.7313-.0017-3.5628-.0017-7.1257.0002-10.6885.0004-.6635.0254-.6843.6653-.6921.1637-.002.3275-.0005.4913-.0005,7.2602,0,14.5206.0327,21.7805-.0129,4.1163-.0259,7.0821-2.0293,8.9746-5.6306.8123-1.5457,1.1079-3.23.9593-4.9704-.122-1.4285-.7918-2.6295-1.6975-3.7102-1.2955-1.5457-2.9297-2.6559-4.685-3.6039-1.8159-.9808-3.7264-1.73-5.7139-2.2853-.2765-.0772-.5499-.1654-.8247-.2486.0084-.0488.0168-.0976.0252-.1464Z"/><path d="m59.919,43.6359c-.0798.2818-.1337.4707-.1869.6599-1.4452,5.1374-.5597,9.842,2.749,14.0264,2.4738,3.1285,5.7568,4.9618,9.6985,5.5795.8222.1289,1.6664.1547,2.5009.1607,2.693.0194,5.3862.0073,8.0793.0075.1456,0,.2914-.0043.4366.003.4217.0212.4668.0664.4907.4758.0042.0725.0025.1454.0025.2181,0,3.563,0,7.126,0,10.6889,0,.0545.0008.1091-.001.1636-.0167.5128-.0477.5548-.5743.5548-3.3299-.0001-6.6622.0691-9.9892-.0313-3.3012-.0996-6.4807-.8715-9.5191-2.1868-3.3995-1.4717-6.3962-3.5291-8.9566-6.2034-4.0033-4.1816-6.4727-9.1293-7.3839-14.8516-.3017-1.8943-.3776-3.7985-.2777-5.7067.0531-1.0134.2127-2.0225.353-3.0296.0774-.5554.1323-.5841.7145-.5846,3.7667-.003,7.5334-.0021,11.3001.0006.1584.0001.3168.0301.5637.0552Z"/><path d="m100.8941,43.6433c.0128.2477.0319.4442.0319.6408.0014,10.3957.0013,20.7915.0012,31.1872,0,.0727.0016.1455-.002.2181-.0215.4258-.0573.4628-.475.4849-.0907.0048-.1819.0024-.2728.0024-3.5475,0-7.0951.0006-10.6426-.0004-.7285-.0002-.7324-.0029-.7324-.7222-.0008-10.3776-.0006-20.7551-.0002-31.1327,0-.1271.0047-.2543.0092-.3814.0077-.217.1222-.3348.3378-.3483.1451-.0091.2908-.0129.4362-.0129,3.5294-.0007,7.0587-.0017,10.5881.0021.2289.0002.4578.0387.7207.0625Z"/><path d="m155.4927,43.6214c-.1528.2648-.2368.422-.3314.5725-3.1043,4.9377-6.2123,9.8732-9.309,14.8157-.2144.3421-.4451.5064-.8697.5072-4.2907.008-8.5813.0375-12.872.0587-.2107.001-.4214-.0183-.7227-.0324.1078-.2214.1631-.3667.2438-.4962,3.1048-4.9803,6.2157-9.9568,9.3115-14.9426.2407-.3876.5184-.5351.9696-.5338,4.2915.0129,8.583.0072,12.8745.0092.1943,0,.3887.0223.7055.0416Z"/><path d="m51.8187,33.1607c.0919-.1496.1749-.3056.2772-.4477.9689-1.3474,2.0701-2.579,3.2631-3.7317.2127-.2055.4401-.3071.7313-.2889.145.0091.291.0008.4366.0008,14.4653,0,28.9306,0,43.3959.0002.2001,0,.4002.0056.6004.0047.2692-.0012.4018.1269.3997.3989-.0022.2908.0041.5816.0042.8724.0006.9089.0039,1.8177-.0016,2.7266-.0034.5653-.034.5915-.5777.6041-.1455.0034-.2911.0011-.4367.0011-15.739,0-31.4779,0-47.2169,0h-.8059c-.0232-.0468-.0464-.0936-.0696-.1403Z"/><path d="m100.8938,25.7921c-.2097.0255-.3847.0612-.5605.0659-5.1264.1376-40.3139.0538-40.8541-.1093.1035-.096.1784-.1899.2744-.2509,3.3032-2.098,6.8919-3.4301,10.7658-3.9923,1.4967-.2172,3.002-.301,4.5142-.3002,8.3345.004,16.6689.0025,25.0034.0012.9735-.0001.8879.0023.8897.8977.0021,1.018.0021,2.0361-.001,3.0541-.0006.1966-.0193.3932-.0321.6337Z"/><path d="m6.6221,36.1322h.5909c8.4579,0,16.9158.002,25.3737-.0058.4348-.0004.8079.0937,1.1814.3233,1.835,1.1279,3.5405,2.4211,5.0979,3.9082.0854.0815.15.1847.2796.3471-.2576.0138-.4315.0312-.6055.0312-8.4215.0013-16.8431,0-25.2646.0052-.3572.0002-.6714-.0762-.9836-.2536-1.9845-1.1279-3.8277-2.4478-5.503-3.9991-.0764-.0708-.138-.1575-.2066-.2368.0132-.0399.0265-.0798.0397-.1197Z"/><path d="m26.6669,33.301h-.5406c-7.1328,0-14.2656,0-21.3984-.0002-.1637,0-.3358.0274-.4889-.0138-.1634-.0439-.3617-.1154-.4541-.2413-.9185-1.252-1.6641-2.6017-2.2153-4.0553-.0239-.0631-.013-.1394-.0223-.2616.1951-.0127.3707-.0342.5463-.0342,4.5672-.0018,9.1344.001,13.7015-.0057.3623-.0005.6654.0943.9644.2994,2.2274,1.5279,4.6815,2.5651,7.263,3.3248.7502.2208,1.4953.4589,2.2411.6944.1489.047.2902.1179.435.1778-.0106.0386-.0212.0771-.0318.1157Z"/><path d="m21.6154,97.7835c0-.198,0-.396,0-.594,0-2.6893-.0008-5.3787.0006-8.068.0004-.7484.0033-.749.7612-.7514.2728-.0009.5463-.0092.8183.0061.3489.0196.3931.0719.4184.4298.009.1266.0042.2543.0042.3815.0002,3.8341.0005,7.6682-.0002,11.5024q-.0001.8132-.8086.8153c-.4365.0009-.8737-.0144-1.3094.0039-.3414.0143-.5287-.1195-.648-.4435-.4647-1.2617-.9512-2.5154-1.4282-3.7727-.6445-1.699-1.287-3.3987-1.9327-5.0973-.0496-.1304-.1172-.254-.282-.3733-.0061.1885-.0174.3771-.0175.5656-.0012,2.762-.0003,5.524-.0011,8.2861q-.0002.8297-.8514.8311c-.2546.0002-.5092-.0048-.7638-.0055-.2424-.0006-.3732-.1141-.3762-.3621-.0016-.1272-.0067-.2543-.0067-.3814-.0004-3.8705-.0003-7.7409-.0003-11.6114,0-.0727-.0012-.1454.001-.218.0156-.5103.0487-.5475.573-.5546.5092-.0069,1.0194.0165,1.5276-.0075.3701-.0175.5594.1363.6874.4736.5221,1.3761,1.0634,2.7449,1.5981,4.1163.5677,1.456,1.1354,2.912,1.705,4.3672.0647.1653.1415.3258.2127.4885.0395-.0088.079-.0177.1186-.0265Z"/><path d="m105.0534,40.694c.0612-.2637.079-.4455.145-.6078.4719-1.1607.957-2.3161,1.4301-3.4763.1399-.3431.355-.4866.7466-.4856,4.8384.0126,9.6768.0079,14.5152.0095.1201,0,.2401.0206.3602.0316.0293.0414.0586.0828.0879.1242-.106.062-.2195.1142-.317.1875-1.4088,1.0604-2.5881,2.3379-3.5514,3.8103-.2129.3254-.4566.4572-.8456.4562-3.9835-.0107-7.967-.006-11.9505-.008-.1775,0-.355-.0232-.6205-.0416Z"/><path d="m48.1863,40.6818c.054-.224.074-.4036.1398-.5645.4817-1.1762.9789-2.3461,1.4568-3.5238.1452-.3578.383-.468.7591-.4673,4.8204.0094,9.6409.0059,14.4614.0073.1235,0,.247.0184.4521.0348-.1284.1341-.1985.23-.2893.2987-1.4207,1.0758-2.6122,2.3651-3.5793,3.8585-.1876.2896-.4008.4186-.7542.4177-4.0383-.01-8.0765-.0058-12.1148-.0084-.1572-.0001-.3145-.0305-.5317-.053Z"/><path d="m13.4022,25.8189c-.2289.0155-.4222.04-.6155.0401-3.8168.0023-7.6337.0017-11.4505.0015-.109,0-.2181-.0046-.3271-.0046-.2555.0001-.4018-.1141-.4448-.3767-.1997-1.2197-.3609-2.4426-.3183-3.6824.0184-.5349.0768-.593.6107-.5946,1.7448-.0052,3.4897-.0024,5.2345-.0025,1.8175,0,3.6351-.0001,5.4526.0002.1454,0,.2908.006.4361.0046.2738-.0026.3883.133.3896.4033.002.3988-.003.8004.0403,1.1958.0978.8947.3797,1.735.8229,2.5202.0534.0946.1019.1922.1468.2911.014.0309.0089.0705.0225.204Z"/><path d="m88.843,40.6854v-4.4983c.2259-.0203.4174-.0524.609-.0525,3.5993-.003,7.1987-.0022,10.798-.002.0909,0,.1819.0059.2726.0031.2706-.0086.4034.1164.401.3906-.0029.3268.0034.6537.0036.9806.0004.8899.005,1.7798-.0026,2.6695-.0044.5187-.0411.558-.5653.5585-3.6721.0037-7.3441.0024-11.0162,0-.1423,0-.2846-.0273-.5001-.0494Z"/><path d="m64.5042,88.4037v1.6828c-.2146.0211-.4054.0539-.5966.0561-.6543.0073-1.3088-.004-1.9629.0075-.3999.0071-.435.0509-.4581.439-.0097.1629-.004.3267-.004.4902-.0002,3.0869-.0001,6.1737-.0001,9.2606,0,.1453.0007.2905-.0002.4358-.0046.7234-.0069.7266-.7306.7292-.3453.0012-.6907-.0046-1.036-.0031-.2695.0012-.4024-.1263-.399-.3976.0021-.1633-.0042-.3268-.0043-.4902-.0003-3.2321.0006-6.4643-.0022-9.6964-.0002-.2296-.0276-.4593-.045-.7303-.2393-.0159-.4337-.0384-.6282-.04-.6361-.0052-1.2724.0045-1.9084-.0058-.4504-.0074-.4889-.0525-.5046-.5093-.0087-.2539-.0094-.5087.0008-.7625.0177-.4408.062-.4786.5226-.498.0726-.0031.1454-.0016.2181-.0016,2.2902,0,4.5804-.0008,6.8706.0013.1971.0002.3942.0187.6681.0326Z"/><path d="m98.926,88.4504c.1464.4339.1553,1.0814.0032,1.6639-.945.0815-1.9226-.011-2.9516.0546-.021.2772-.0555.5228-.0558.7683-.0036,3.2333-.0021,6.4667-.0027,9.7q-.0001.8667-.8688.8677c-.2909,0-.5817-.0047-.8726-.0067-.2467-.0017-.3644-.1291-.3663-.3716-.0015-.1816-.0063-.3632-.0063-.5448-.0004-3.2152.0004-6.4303-.0019-9.6455-.0002-.2312-.023-.4623-.0393-.7689-1.027-.0142-2.0157-.0278-3.0363-.0419-.126-.5819-.0863-1.1126-.0352-1.6297.4511-.1547,7.6677-.1818,8.2337-.0453Z"/><path d="m136.1965,95.8057c0,1.6889.0026,3.3778-.0014,5.0667-.0014.5956-.0324.623-.6073.6314-.3453.005-.6911.0097-1.036-.0038-.394-.0154-.4387-.064-.4626-.4429-.0103-.1628-.0044-.3268-.0044-.4902-.0002-3.1054-.0001-6.2108-.0001-9.3162,0-.1453.0009-.2906-.0003-.4358q-.0053-.6646-.6683-.6689c-.6726-.0028-1.3454.0063-2.0177-.0056-.3971-.007-.441-.0538-.4557-.4409-.0124-.3263-.0009-.6535.0033-.9803.0028-.2185.1153-.3349.3364-.3408.1272-.0034.2544-.008.3816-.0081,2.2905-.0005,4.581-.0003,6.8714-.0003.0364,0,.0727-.0003.1091.0004.5843.011.6065.0321.6151.6236.0034.236.0085.4726-.0039.7081-.0202.3864-.0583.4312-.4598.4382-.6906.0121-1.3816-.0004-2.0722.0076-.4843.0056-.5223.0405-.5239.5368-.0054,1.707-.0021,3.4141-.0021,5.1212h-.0011Z"/><path d="m2.2102,94.9338c0,1.9081.0001,3.8162-.0002,5.7244,0,.1454-.0059.2908-.0039.4361.0037.2659-.1155.4075-.3911.4061-.4365-.0023-.873-.0024-1.3095,0-.272.0015-.4005-.1311-.3966-.4007.0018-.1271-.0043-.2543-.0043-.3815-.0003-3.8526-.0007-7.7052.0002-11.5578.0002-.7877.0023-.7889.7772-.7901.3274-.0005.6548.0034.9821.0085.2208.0035.3323.1213.3376.3402.004.1635.0082.327.0082.4905.0006,1.9081.0004,3.8162.0004,5.7244Z"/><path d="m78.6581,94.9614c0,1.8725,0,3.7451,0,5.6176,0,.1454.0042.2911-.0029.4363-.0207.4196-.0641.4728-.4777.4847-.4181.012-.8369-.0001-1.2554-.0018-.2452-.001-.3673-.1246-.3693-.3691-.0012-.1454-.0064-.2908-.0064-.4362-.0004-3.836-.0006-7.672,0-11.5079q.0001-.813.8075-.8148c.3093-.0004.6186.0047.928.0061.2453.0011.3679.1226.3695.3678.0011.1636.0065.3271.0065.4907.0005,1.9089.0003,3.8178.0003,5.7267Z"/></g></g></svg>