<?xml version="1.0" encoding="UTF-8"?><svg id="Layer_2" xmlns="http://www.w3.org/2000/svg" viewBox="0 0 149.8108 183.1641" fill="#ffffff"><g id="Components"><g id="_0bfeaa5a-e9d9-4945-9b9a-c968d180dbf1_4"><path d="m117.9865,19.1746c0,3.7346.097,7.4724-.0275,11.2028-.1225,3.6706-.375,7.3431-.7381,10.9981-.7451,7.4996-2.3315,14.8311-4.7397,21.9773-3.7579,11.1512-9.4092,21.214-17.3304,29.9527-6.1657,6.8021-13.2473,12.4304-21.4845,16.5497-.6273.3137-1.2842.5686-1.9083.8881-.4379.2242-.816.1822-1.2568-.0147-5.0791-2.2693-9.6987-5.2772-14.0127-8.7606-11.2871-9.1136-19.3723-20.566-24.7173-34.0015-2.5258-6.349-4.2987-12.9093-5.4661-19.6394-1.2282-7.081-1.7925-14.2142-1.7641-21.3978.0136-3.4389-.0091-6.8782.0369-10.3166.0559-4.1757.1698-8.3506.2494-12.526.0078-.4077.0929-.6139.577-.6469,2.7272-.1862,5.4515-.4139,8.1769-.6271,3.1121-.2434,6.2242-.4872,9.3364-.7291,2.5782-.2004,5.1567-.3974,7.735-.5976,2.6885-.2088,5.3767-.4217,8.0653-.6289,2.5969-.2002,5.1942-.3944,7.7912-.5932,1.197-.0916,2.3934-.2576,3.5907-.2636,1.3995-.0069,2.8014.0992,4.1991.2006,2.6157.1897,5.2292.4106,7.8435.6199,3.038.2431,6.0758.4883,9.1138.7314,2.4856.1989,4.9713.396,7.4569.594,3.1118.2478,6.2235.4965,9.3353.7431,2.5041.1985,5.0084.3951,7.5127.5914.5524.0433,1.1047.1003,1.658.1167.3554.0105.4657.1459.4724.5014.0603,3.1777.1536,6.3549.2066,9.5328.0308,1.8472.0056,3.6953.0056,5.543.0277,0,.0553,0,.083,0ZM52.1361,53.0317c.2472.4999.2701,1.2041.0595,1.8861-.0898.291-.2288.4572-.5672.4963-.632.0729-1.0354.4605-1.1901,1.0769-.1628.6489.0784,1.2551.6078,1.5978.5354.3465,1.3558.2893,1.9182-.1677,1.12-.91,1.6598-2.1214,1.6559-3.5404-.0025-.9091-.1436-1.8179-.2254-2.7592.0068-.0032.07-.0449.1393-.0641,4.4599-1.2388,9.0004-1.8004,13.6318-1.7216,3.9188.0667,7.7034.7861,11.3684,2.1463.4294.1594.6088.0557.8373-.2857.5748-.8588,1.3226-1.5418,2.2639-1.9889,1.954-.9281,3.8252-.0275,4.3009,2.0771.2858,1.264.1349,2.5014-.3414,3.6941-.1311.3283-.0917.5353.1611.775.6037.5721,1.1952,1.1587,1.7636,1.7656.2629.2807.539.3796.9204.3786,4.6408-.0121,9.2816-.0078,13.9224-.0078h.7412c-.1887-.7215-.2929-1.3595-.5212-1.9495-.8092-2.0919-2.1634-3.8165-3.7714-5.3469-3.031-2.8848-6.6564-4.7507-10.5813-6.0806-3.4051-1.1538-6.912-1.8369-10.4822-2.2308-3.4606-.3818-6.9223-.5688-10.3947-.1912-4.6839.5093-9.2267,1.6166-13.6433,3.2491-.8775.3243-1.7466.6715-2.7934,1.0751-.0296-.7156-.0665-1.3265-.0758-1.9378-.0058-.3789.1518-.6246.5572-.7633.5954-.2036.8969-.6665.9105-1.3172.0135-.6449-.2595-1.1135-.8284-1.3838-.5888-.2798-1.152-.1982-1.6437.2458-.6668.602-1.1471,1.3547-1.2566,2.2265-.1155.9198-.0303,1.8645-.0387,2.7982-.0018.2056.0463.4667-.0576.6061-.3109.4174-.6858.7871-.9463,1.0763-.569.0629-1.1503-.012-1.5736.2119-.4481.237-.7459.7582-1.1405,1.1893-1.2313-.3692-1.778-.0999-2.4569,1.2864-1.49-.3619-1.895-.1584-2.5767,1.3068-.0666-.0168-.1388-.0281-.2059-.0529-1.1732-.4336-1.9914.0228-2.259,1.2404-.1901.8649.0178,1.6505.4464,2.3889.4105.7073.993,1.234,1.8491,1.2283.8306-.0055,1.2577-.5977,1.522-1.3104,1.5464.5025,1.8575.3886,2.725-.9803,1.545.4244,1.7498.3465,2.7173-1.0337,1.3964.4629,1.8339.3012,2.6363-.909h1.9156Zm-6.0457,19.3767c-1.1305-.3152-1.7637-.0556-2.0226.8503-.2782.9735-.0868,1.8659.579,2.6399.8189.952,2.1164.8601,2.5131-.3278.0166-.0496.057-.0913.076-.1207,1.1904.446,1.526.3185,2.2433-.8203,1.2291.3505,1.3878.2915,2.2488-.8483.9792.3901,1.7257.1282,2.0795-.7316.6801-.0303,1.2324-.0549,1.86-.0829,0,.2731.0068.5988-.0019.9241-.009.3383-.1265.5208-.5313.5345-.7425.0251-1.1977.5955-1.1502,1.339.043.6737.6189,1.2351,1.3076,1.1299.466-.0712.9932-.2512,1.3306-.5601,1.0986-1.0055,1.3312-2.3343,1.1613-3.7586-.034-.2854-.104-.5664-.1626-.8768.2546-.0779.4603-.1629.6745-.2031,2.2454-.4208,4.4791-.9344,6.7413-1.2278,3.9296-.5097,7.817-.2569,11.5801,1.1089.292.106.4508.0737.6345-.1952.528-.7731,1.198-1.4048,2.0414-1.832,1.8361-.93,3.5502-.1893,4.1335,1.7845.3203,1.0835.2309,2.1561-.1178,3.2133-.0993.301-.0582.5031.1968.7176.5369.4516,1.0582.9252,1.5528,1.4226.3005.3021.6265.3941,1.0394.3927,3.457-.0114,6.914-.0065,10.371-.0065,1.2652,0,1.347-.111.9386-1.3078-.0833-.244-.1855-.4827-.2943-.7167-.6715-1.444-1.6329-2.6785-2.7768-3.7726-2.6504-2.5351-5.8507-4.0932-9.3058-5.1825-3.2934-1.0382-6.6874-1.523-10.1189-1.7862-2.421-.1857-4.8331-.1469-7.2358.2493-3.9091.6447-7.7025,1.7165-11.4273,3.049-.166.0594-.34.0966-.6538.1842-.0265-.6475-.0801-1.2083-.0527-1.765.0077-.1569.2249-.3565.3938-.4428.5634-.2875.8266-.6698.8032-1.2657-.0213-.5418-.2985-.9265-.7922-1.0935-.5309-.1795-1.0518-.1514-1.4734.3172-.6582.7316-1.0292,1.585-1.0268,2.5629.0017.6752.1065,1.3501.1536,1.892-.3344.3872-.6129.7148-.8982,1.0363-.0771.0869-.1885.2336-.261.2209-1.0275-.1804-1.645.3358-2.0474,1.1885-1.2664-.1728-1.5527-.0269-2.1498,1.0746-1.3725-.1636-1.5593-.0706-2.1534,1.092Zm15.0842-57.5883c-.2668-.1079-.5197-.174-.7301-.3072-.1607-.1018-.3443-.2701-.3855-.4408-.2032-.8424-.6557-1.4492-1.514-1.6652-.8377-.2109-1.5465.0688-2.0615.7426-.5551.7262-.6542,1.5744-.1714,2.3348.3283.5172.3095.9311.0894,1.422-.0359.0802-.049.1707-.0819.2903.5143.1998,1.0014.425,1.5106.5756.4276.1265.6459.3745.7295.7964.5803,2.9285,1.1868,5.8519,1.737,8.786.1444.7703.4483,1.3943,1.0406,1.8888.912.7614,1.9821,1.2143,3.1086,1.5266,3.9901,1.106,8.0209,1.1432,12.0672.3669,1.6051-.3079,3.1532-.7952,4.4585-1.8445.5354-.4304.9159-.9685,1.0302-1.6566.1996-1.201.3413-2.4129.5792-3.6058.3639-1.8245.7914-3.6363,1.186-5.4548.0911-.4197.3226-.6644.7431-.7934.5076-.1556.9949-.3775,1.5083-.5774-.0319-.1243-.0387-.2182-.0785-.2949-.2591-.4981-.3013-.914.0523-1.4593.4755-.7334.3538-1.5611-.1724-2.2849-.4848-.6669-1.1626-.901-1.9514-.7597-.8008.1434-1.3581.6536-1.5274,1.4276-.1103.5041-.3509.7318-.7956.8371-.3593.0851-.4195.27-.2783.606.1853.4411.3436.8971.4659,1.3593.0502.1899.0451.4543-.0519.6136-.6911,1.1352-1.4177,2.2488-2.1202,3.3771-.156.2505-.33.2613-.5983.2105-1.8451-.3495-3.6957-.67-5.5395-1.0261-.1591-.0307-.3815-.235-.4058-.3858-.2725-1.694-.5241-3.3918-.7448-5.0933-.0276-.2128.1035-.4962.2506-.6718.3754-.4481.8015-.8538,1.2265-1.2963-.1813-.2016-.3103-.3866-.4788-.5227-.2717-.2196-.2895-.4629-.2066-.7823.2116-.8164-.0589-1.5055-.6858-2.0312-.6556-.5498-1.4202-.6112-2.1851-.2678-.7833.3517-1.2563,1.0229-1.1362,1.8546.1066.7384-.1045,1.2296-.6134,1.6794-.0208.0184-.0136.0685-.0439.2522.0947.0676.2648.1812.4265.3057.8401.6466,1.1856,1.4183.9421,2.5302-.3179,1.4517-.4631,2.9412-.6564,4.2378-2.0639.4215-3.9893.8233-5.921,1.1928-.1503.0287-.413-.1237-.5061-.2678-.6915-1.07-1.3684-2.1504-2.011-3.2503-.1187-.2031-.1321-.5275-.0708-.7639.1465-.5656.3665-1.1123.5717-1.71Zm-.062,73.8611c1.1124-.2491,2.1434-.5263,3.1912-.7061,3.412-.5854,6.8227-.8143,10.1955.2523.2956.0935.4358-.03.651-.2209.5723-.5077,1.145-1.0742,1.8233-1.3906,1.3077-.61,2.6618-.0035,3.1287,1.3662.2074.6084.3631,1.3507.2043,1.9414-.264.9821.0139,1.5425.7911,2.1032.5069.3657.9673.5648,1.5954.5572,2.5137-.0304,5.028-.0126,7.5421-.0126.2156,0,.4311,0,.7431,0-.0651-.4275-.0838-.7757-.1743-1.104-.2905-1.0534-.8712-1.9506-1.5768-2.7695-1.5449-1.7928-3.486-3.0333-5.6755-3.8502-6.6878-2.4951-13.4747-2.7043-20.3242-.7147-1.2178.3538-2.4056.8111-3.6061,1.2201-.3202-.4787-.4111-.9718-.2262-1.459.05-.1316.1867-.2664.3172-.3251.5207-.2341.7678-.6203.7191-1.1849-.041-.475-.3109-.7919-.7583-.924-.5214-.154-.9706-.0463-1.3313.4079-.8012,1.0091-.9037,2.1447-.6781,3.3583.029.1559.0148.3656-.0699.4875-.1847.266-.4277.4916-.6688.758-.7964-.2638-1.3108.1267-1.6541.8603-.8271-.2415-1.3945.0394-1.6929.8545-.8877-.3389-1.4081.0574-1.7154.8081-.9574-.1669-1.3891.0217-1.617.6803-.3296.9524.1241,2.1702.9639,2.5877.6174.3069,1.0703.1231,1.6313-.6621,1.0042.2147,1.0726.189,1.8206-.6933.6251.2281,1.1841.1891,1.6043-.4266.0534-.0782.2604-.1091.3742-.0789.5772.1531,1.0059-.0321,1.3502-.5022.0721-.0984.2184-.1895.3368-.1981.3557-.0259.7145-.0093,1.0777-.0093.2881.7233.1288,1.1821-.5232,1.4791-.5854.2667-.8241.9153-.5467,1.4856.2831.5822.9844.7955,1.5597.4475.6435-.3892,1.0483-.971,1.2747-1.6847.2768-.8728.2471-1.7448-.0567-2.7383Z"/><path d="m18.4057,122.5118c-.6186,2.2845-1.2022,4.47-1.8028,6.6509-1.0676,3.8767-2.1518,7.7488-3.2103,11.628-.1169.4283-.2909.6239-.754.5855-.4774-.0396-.9623-.0339-1.4407-.0014-.4418.03-.6391-.118-.7596-.5679-1.0837-4.0446-2.2027-8.0796-3.2963-12.1216-.5153-1.9049-.9973-3.8187-1.4958-5.7281-.0303-.1162-.0739-.2289-.1114-.3433-.5688,6.2429-1.1362,12.4696-1.7058,18.7212H0c.8941-8.3093,1.7837-16.5767,2.6805-24.9108h3.0838c1.4279,0,1.439-.003,1.8017,1.3521,1.4071,5.2563,2.8078,10.5144,4.2063,15.773.1182.4445.2025.898.2727,1.2135,1.6263-5.8775,3.2872-11.8645,4.9309-17.8561.1037-.3779.2644-.4979.6457-.4905,1.1642.0225,2.3296.0278,3.4935-.0021.425-.0109.5355.1715.574.5393.4107,3.9293.8248,7.8583,1.2484,11.7863.388,3.5976.7904,7.1937,1.1824,10.7909.0635.5829.1065,1.168.1665,1.837-1.1319,0-2.1988,0-3.2658,0-.9452-.0001-.9712.0023-1.0601-.9264-.2588-2.7019-.4916-5.4063-.7409-8.1092-.2323-2.5189-.4799-5.0365-.7046-7.5561-.0639-.7163-.0713-1.4377-.1096-2.2642Z"/><path d="m13.3362,150.5064c1.3523,0,2.6062-.0086,3.8594.0144.1154.0021.2663.1876.3288.3215.0571.1224.0186.2903.0186.4381.0003,5.5269-.0021,11.0538.0014,16.5808.0014,2.1452-.5177,4.1089-2.0721,5.6691-1.9655,1.9729-4.4225,2.5087-7.0906,2.2137-2.5808-.2854-4.6118-1.4953-5.8709-3.8328-.6169-1.1453-.8643-2.3908-.8654-3.6831-.0049-5.6933.0029-11.3866-.0114-17.0798-.0013-.5001.1389-.6745.6552-.6568,1.0893.0373,2.1815.0343,3.2711.001.492-.015.6236.1446.6223.6298-.0158,5.6748-.0145,11.3496-.002,17.0244.001.4736.0618.9619.1875,1.4178.4661,1.6911,1.8422,2.6787,3.5347,2.5841,1.7588-.0982,3.0475-1.2513,3.3255-2.9984.0664-.4174.1029-.8442.1034-1.2667.0067-5.5454.0045-11.0908.0045-16.6362,0-.2184,0-.4368,0-.7408Z"/><path d="m66.3824,121.9084v-8.9311c.2379-.0175.4344-.0436.631-.0444,1.0166-.0043,2.0343.0269,3.0493-.0137.5507-.022.7249.1757.6677.6984-.036.3288-.0067.6647-.0067.9974,0,8.3175-.0067,16.635.0147,24.9525.0015.5738-.1829.8542-.6904,1.0822-1.7387.7811-3.5811,1.0529-5.4512,1.0654-2.732.0183-5.2481-.6118-7.0849-2.8551-1.1323-1.3828-1.7159-3.0072-1.9611-4.7514-.3306-2.3514-.2371-4.6857.5511-6.9469,1.5266-4.379,5.122-6.1892,9.6506-5.3704.18.0325.3597.0668.6299.1171Zm-.0046,2.6231c-2.4138-.8868-4.9447.096-5.8505,2.4211-1.2092,3.1039-1.1935,6.2884.0093,9.3992.9391,2.4286,3.3582,2.8395,5.286,2.2771.416-.1214.5718-.3228.5673-.7799-.0251-2.5847-.0121-5.1698-.0121-7.7548,0-1.8456,0-3.6912,0-5.5627Z"/><path d="m47.3102,121.8343c.0143-.2462.0396-.4806.0398-.715.0029-2.513.0131-5.0261-.0076-7.5389-.0041-.4929.1258-.6762.6448-.6609,1.1973.0352,2.3964.0112,3.6509.0112.0124.248.0306.4424.0307.6367.0014,8.7216-.0033,17.4432.0136,26.1647.0009.471-.1689.6932-.5678.8702-2.0173.8951-4.1331,1.1996-6.3182,1.0602-.7519-.048-1.517-.1036-2.2442-.2841-2.5854-.6414-4.4134-2.2309-5.3324-4.7181-1.265-3.4239-1.2192-6.8891.1717-10.2684,1.3364-3.247,4.1778-4.9569,7.683-4.7631.7296.0403,1.4563.1325,2.2356.2055Zm.0034,9.6977h.0383v-5.8201c0-1.3641.0003-1.3701-1.3749-1.4349-1.6225-.0765-3.0759.3133-4.0059,1.7519-.4135.6396-.7193,1.3767-.9354,2.1104-.5033,1.7082-.483,3.4797-.304,5.2244.1058,1.0305.3747,2.0792.7685,3.0383.9376,2.283,3.1762,2.8018,5.2703,2.2431.4018-.1072.5569-.3055.5526-.7371-.0209-2.1252-.0095-4.2506-.0095-6.376Z"/><path d="m36.9073,175.4025h-4.267c-.0154-.2696-.0419-.5197-.0421-.7698-.0026-4.2891.0002-8.5783-.0054-12.8674-.0005-.3867-.0113-.781-.085-1.1586-.2379-1.2198-1.1482-2.0967-2.4722-2.1671-.9803-.0522-1.9749.1285-2.9606.2297-.48.0493-.6321.3327-.6301.8329.0201,5.0286.0124,10.0573.012,15.0859q0,.7845-.7789.7851c-1.1617.0004-2.3233,0-3.5435,0-.0128-.24-.0322-.4352-.0323-.6304-.0016-5.7497-.0003-11.4994-.004-17.249-.0002-.3254.001-.5807.394-.7368,3.1174-1.2382,6.3314-1.6227,9.6175-.9611,3.2176.6478,4.7718,2.4723,4.8266,5.7461.0752,4.4912.0197,8.9847.018,13.4772,0,.1073-.0255.2146-.047.3833Z"/><path d="m134.7157,183.1497c.6085-1.5529,1.1727-2.9925,1.7366-4.4321.3499-.8932.6756-1.7968,1.0584-2.6756.2056-.4721.2095-.8937.0535-1.3818-1.9311-6.0429-3.8448-12.0913-5.7628-18.1385-.0554-.1747-.1075-.3505-.1799-.5873.1884-.0253.3442-.0636.5001-.0643,1.2013-.0052,2.4027.0038,3.6039-.0078.3177-.003.5016.0778.5878.4199,1.0726,4.2556,2.1615,8.5071,3.2347,12.7625.1212.4807.1719.9791.2619,1.5076.2308-.9458.4344-1.8715.6834-2.7849,1.0336-3.7902,2.0852-7.5756,3.1169-11.3663.102-.3747.2516-.5553.6723-.5435.9972.0281,1.9958.0068,2.9938.0111.1592.0007.3182.0304.5478.0539-.2436.7893-.4683,1.5243-.6974,2.2581-2.5338,8.115-5.0731,16.2284-7.5907,24.3484-.1549.4998-.3766.6498-.8879.6337-1.2711-.0401-2.5444-.0132-3.9324-.0132Z"/><path d="m120.8006,133.2404c.2507,3.5544,2.0836,5.3001,5.0062,5.2876,1.6354-.007,3.1798-.3485,4.7332-1.0952.3278.9322.6552,1.8249.9375,2.7317.0253.0813-.2182.3016-.3754.3761-2.3372,1.1075-4.8027,1.4229-7.3451,1.0671-2.2411-.3136-4.0782-1.3536-5.38-3.2496-.8631-1.257-1.3542-2.6643-1.5732-4.1569-.3995-2.7228-.316-5.417.7305-8.0075,1.339-3.3147,4.3453-5.0455,7.8975-4.7137,3.6898.3446,5.7424,2.7027,6.4207,6.1416.2059,1.0441.2299,2.1243.3328,3.1884.0449.4646-.0737.7155-.6341.7945-3.36.4735-6.7129.9972-10.068,1.506-.2166.0328-.4308.0816-.6825.13Zm-.2871-2.4235c.1623.008.2369.0244.3071.0134,2.3121-.3639,4.6249-.7238,6.9329-1.1128.1402-.0236.3585-.2965.3413-.4272-.1268-.9636-.2124-1.948-.4881-2.873-.3819-1.2815-1.3241-2.0278-2.6784-2.1376-1.27-.103-2.3852.2665-3.1682,1.3277-1.1375,1.5418-1.2476,3.3347-1.2465,5.2096Z"/><path d="m82.377,165.5586c-3.9063.5981-7.6413,1.1699-11.3697,1.7408-.0631,2.7608,1.5683,5.0466,4.0939,5.266,1.8047.1568,3.5334-.095,5.1791-.8684.1137-.0534.2389-.0825.4086-.1397.3158.8655.6404,1.7064.9144,2.5635.0371.116-.142.3906-.2852.4608-1.581.7749-3.2649,1.1599-5.0199,1.2125-1.3912.0417-2.772-.0598-4.0956-.5381-2.4347-.8797-3.9914-2.6303-4.7694-5.0465-1.0144-3.1501-1.008-6.3374.0642-9.4702.9181-2.6828,2.7082-4.4997,5.5822-5.0602,4.6555-.908,8.2278,1.5744,8.9646,6.2613.1848,1.1759.2227,2.3749.3329,3.6181Zm-4.1464-1.7991c.0668-1.0883-.0673-2.1001-.3988-3.0872-.4134-1.2308-1.1895-2.0701-2.5232-2.2689-1.4986-.2234-2.7484.2008-3.5894,1.5163-.965,1.5095-1.079,3.2085-1.0745,5.0182,2.5494-.396,5.0347-.782,7.5859-1.1783Z"/><path d="m87.7721,133.261c.2322.8574.3798,1.6973.6862,2.4746.7113,1.8045,2.1123,2.6716,4.0299,2.7708,1.6749.0866,3.2711-.2087,4.7942-.9082.0968-.0444.2015-.0719.3626-.1282.3161.8878.6392,1.746.91,2.6205.0327.1057-.1886.388-.3412.4376-1.1711.3806-2.3353.8228-3.5384,1.0546-1.6259.3132-3.2814.235-4.8897-.1967-2.2932-.6155-4.0275-1.9978-4.9502-4.1771-1.6668-3.9367-1.6638-7.9307.1921-11.8004,1.4286-2.979,4.3018-4.1432,7.3353-3.9373,4.1242.28,6.0608,3.0198,6.6533,6.474.1737,1.013.1701,2.0565.2484,3.0859.0246.3239-.0744.4867-.445.5409-3.4131.4991-6.8229,1.0211-10.2334,1.5382-.2341.0355-.4659.0858-.814.1508Zm-.164-2.4621c.114.0198.1696.0441.2203.0362,2.3661-.3673,4.7326-.7319,7.0947-1.1228.1192-.0197.3001-.2818.2835-.4089-.124-.9456-.1937-1.9148-.4669-2.8204-.3958-1.3121-1.3365-2.107-2.7476-2.2065-1.2972-.0914-2.4127.3109-3.184,1.4069-1.0858,1.543-1.2012,3.3147-1.2,5.1155Z"/><path d="m134.1952,121.8061c.4048,0,.6927,0,.9806,0,.998,0,1.9964.0177,2.9937-.0082.4226-.0109.6547.1153.8482.5165.9212,1.9099,1.8825,3.8005,2.8823,5.8035.1499-.2727.2618-.467.3651-.6657.8945-1.7193,1.7959-3.4352,2.6738-5.1629.1828-.3598.405-.5019.8141-.4922,1.1394.027,2.2799.0094,3.5267.0094-.1285.2571-.1979.4175-.2852.5673-1.5802,2.7117-3.1563,5.426-4.7528,8.1281-.1954.3307-.195.5698-.0062.9002,1.7221,3.0135,3.4266,6.037,5.1351,9.0583.1443.2551.2797.5152.4404.8121-.141.0378-.24.087-.3393.0875-1.3306.0059-2.6613-.0053-3.9917.0124-.3489.0046-.4754-.1868-.6055-.4516-.9771-1.9882-1.9629-3.9721-2.9469-5.9569-.0893-.1801-.1843-.3573-.3292-.6374-.1605.2982-.2901.5267-.4085.7609-.9741,1.927-1.9555,3.8504-2.9103,5.7869-.1802.3656-.3923.5124-.8033.5022-1.0712-.0267-2.1436-.0072-3.2155-.0104-.1785-.0005-.357-.0228-.6264-.0412.1283-.2408.2145-.4144.311-.5821,1.731-3.0086,3.4578-6.0195,5.2024-9.0202.1999-.3438.2099-.6003.0111-.9539-1.5199-2.7034-3.0168-5.4197-4.5199-8.1325-.1306-.2356-.2543-.475-.4438-.83Z"/><path d="m48.8538,155.8761c1.4704,0,2.8882-.0137,4.3048.0223.134.0034.3281.3014.3795.4933.8288,3.0991,1.6449,6.2017,2.451,9.3069.4211,1.6221.8172,3.2507,1.1615,4.6244.4762-1.828,1.0145-3.9218,1.568-6.0116.6988-2.6384,1.4156-5.272,2.1093-7.9117.0983-.3741.2472-.552.6673-.5421,1.1423.0269,2.2857.0092,3.509.0092-.0473.2231-.068.3784-.1133.5261-1.8976,6.1855-3.7988,12.3699-5.6926,18.5565-.098.3202-.2333.4923-.6067.4846-1.0714-.0222-2.1436-.0124-3.2154-.0045-.2906.0022-.4625-.0677-.5622-.387-1.9669-6.3019-3.947-12.5996-5.9232-18.8985-.0159-.0508-.0154-.1068-.037-.2681Z"/><path d="m129.7373,172.4106c0,.9131.015,1.7566-.0168,2.5983-.0046.121-.2152.2953-.3625.3406-2.6206.806-6.5488.1025-6.9699-4.2754-.0441-.4586-.072-.9208-.0728-1.3814-.0061-3.4185-.0133-6.8371.0074-10.2555.0031-.5076-.1417-.7001-.6528-.6583-.4368.0358-.879.0074-1.3507.0074v-2.9204c.4413,0,.8782-.03,1.3092.0076.5452.0475.758-.1282.7339-.7069-.0431-1.033-.0237-2.0694,0-3.1036.0042-.1835.1179-.4861.2461-.5265,1.3157-.4136,2.6449-.7844,4.0599-1.1931,0,.2684,0,.464,0,.6596,0,1.4598.0104,2.9197-.0072,4.3793-.0043.3604.108.4957.47.4875.7202-.0163,1.4413.0055,2.1618-.0051.3252-.0048.4661.1103.4573.4515-.0176.6833-.0155,1.3675-.0012,2.0509.0067.319-.1357.4214-.4318.4186-.7206-.0069-1.4414.0086-2.1619-.0024-.3324-.0051-.496.0739-.4946.4623.0134,3.6402.0052,7.2805.0137,10.9208.0007.3111.0513.6281.123.9319.2524,1.0687,1.1349,1.6221,2.2678,1.4399.195-.0314.3882-.0733.6722-.1274Z"/><path d="m107.0352,159.5793c-1.0042-.7518-2.0371-1.1274-3.2119-1.0921-1.0543.0317-1.8216.5147-2.2106,1.4706-.3872.9514-.3432,1.9581.4397,2.6743.6245.5713,1.4286.9532,2.1729,1.3848.6215.3603,1.2935.6354,1.906,1.0091,3.5727,2.1799,3.2133,7.3724.064,9.4649-2.3955,1.5917-4.976,1.5259-7.6021.7207-.5584-.1712-1.0814-.4702-1.6006-.7479-.1112-.0594-.2255-.315-.1853-.4235.3192-.8621.6753-1.7105,1.045-2.6246.2094.122.378.2218.5481.3191,1.1237.6424,2.3279.9435,3.6146.7436,1.1387-.1769,1.8701-.8769,2.1181-1.9909.2492-1.1193.0354-2.1647-.941-2.8748-.5451-.3964-1.1766-.6889-1.7984-.9616-1.0752-.4715-2.0846-1.0239-2.9089-1.8812-2.2289-2.318-1.7869-7.8007,2.9612-9.0316,2.1845-.5663,4.2848-.1951,6.2563.9111.3132.1757.4149.3417.2526.698-.3197.7018-.591,1.4257-.9197,2.2321Z"/><path d="m101.7791,140.1696c.3614-.9072.7341-1.8429,1.1301-2.8371.9483.6589,1.9364,1.0156,3.0222,1.133,1.5179.1641,2.7287-.4824,3.1684-1.7433.4879-1.3991-.027-2.7701-1.3909-3.5311-.7387-.4122-1.5438-.7039-2.2945-1.0967-1.5581-.8152-2.6867-1.9818-3.0524-3.781-.6781-3.3363,1.6134-6.4394,5.0052-6.8054,1.9203-.2072,3.7032.136,5.3897,1.0699.3588.1987.4052.3913.2434.745-.3208.7012-.6038,1.4197-.9198,2.1724-.2007-.1288-.3538-.2262-.5062-.3248-.9362-.6055-1.9678-.8465-3.0656-.7164-.8977.1064-1.5416.6291-1.8682,1.4621-.3518.8974-.3267,1.8323.3547,2.5466.4954.5193,1.1533.9025,1.7836,1.2692.7153.4161,1.5018.7093,2.2207,1.1199,3.837,2.1917,3.4136,7.6904-.0442,9.7826-2.4467,1.4805-6.7561,1.3512-9.0754-.3302-.0281-.0204-.0441-.0576-.1009-.1349Z"/><path d="m79.8092,112.9306v28.4373c-.929,0-1.8297.0116-2.73-.0045-.5098-.0091-1.1831.1168-1.4785-.1522-.2574-.2344-.1044-.9375-.1046-1.4335-.0034-8.6842-.0025-17.3684-.0023-26.0526q0-.7918.7736-.7941c1.1606-.0013,2.3212-.0003,3.5419-.0003Z"/><path d="m94.3454,158.8866c-1.187-.4433-2.3046-.464-3.4375-.1009-.3987.1278-.5301.3247-.5287.7496.0159,5.045.0102,10.09.0102,15.135,0,.2196,0,.4392,0,.6903-.1777.0254-.3179.0623-.4584.0629-1.1272.0048-2.2546-.0062-3.3817.0081-.3679.0047-.5233-.1018-.5226-.5019.0102-5.8581.0095-11.7162.0009-17.5743-.0005-.3377.1484-.4839.4322-.613,1.64-.7465,3.3802-1.0534,5.1581-1.1425,1.1566-.0579,2.3185-.0109,3.5716-.0109-.2797,1.0925-.5506,2.151-.8441,3.2976Z"/><path d="m28.2122,121.8314h4.255v19.4921h-4.255v-19.4921Z"/><path d="m41.5258,155.8911h4.2543v19.492h-4.2543v-19.492Z"/><path d="m112.4342,155.9089h4.2488v19.4635h-4.2488v-19.4635Z"/><path d="m30.3697,118.5695c-1.3201.0035-2.374-.9602-2.3873-2.1832-.0134-1.2257,1.0961-2.2967,2.3734-2.2912,1.2673.0055,2.3414,1.0322,2.3542,2.25.013,1.2381-1.0209,2.2208-2.3402,2.2243Z"/><path d="m116.9049,150.3832c-.0008,1.2529-.9921,2.2501-2.2418,2.2553-1.205.0049-2.2192-1.0085-2.2233-2.2215-.0041-1.2249,1.0379-2.2676,2.2585-2.26,1.2186.0076,2.2074,1.0052,2.2066,2.2263Z"/><path d="m46.0116,150.4166c-.0098,1.237-1.028,2.2294-2.2796,2.2218-1.2007-.0073-2.2022-1.0411-2.186-2.2564.0164-1.2337,1.0646-2.2526,2.2886-2.2247,1.2228.0279,2.1868,1.0283,2.1771,2.2592Z"/><path d="m72.1864,29.7832c-3.5751-.0692-6.1206-.151-8.5952-.8527-.4392-.1246-.8779-.296-1.2728-.5226-.7896-.4532-.8046-1.0874.0165-1.4865.7201-.35,1.5056-.6208,2.292-.7692,3.1583-.5959,6.355-.6217,9.5453-.3927,1.5552.1116,3.0995.4208,4.6376.7013.4556.0831.906.3235,1.301.5805.5771.3756.589.9892-.0286,1.2693-.8796.399-1.8103.779-2.7559.9194-2.0388.3026-4.1009.4472-5.1399.5531Z"/></g></g></svg>