<?xml version="1.0" encoding="UTF-8"?><svg id="Layer_2" xmlns="http://www.w3.org/2000/svg" viewBox="0 0 112.8551 100"><g id="Components"><g id="c609f8ec-d6a9-4cdf-beb8-d78a721ce820_4"><path d="m107.7251,0H28.9851c-2.83,0-5.13,2.3-5.13,5.13v17.78c.02.02.04.03.06.04.53.33,1.09.72,1.77,1.23.42.32.82.65,1.17.94v-8.12h83v32.42c0,.83.67,1.5,1.5,1.5s1.5-.67,1.5-1.5V5.13c0-2.83-2.3-5.13-5.13-5.13Zm2.13,14H26.8551V5.13c0-1.17.96-2.13,2.13-2.13h78.74c1.17,0,2.13.96,2.13,2.13v8.87Z"/><path d="m112.8551,60.15v19.72c0,2.83-2.3,5.13-5.13,5.13h-5.87v9.39c0,3.09-2.52,5.61-5.61,5.61h-56.43c-2.73,0-4.96-2.23-4.96-4.96v-10.04h-5.87c-2.83,0-5.13-2.3-5.13-5.13v-10.4c.12-.07.24-.15.36-.23.68-.43,1.33-.9,1.97-1.41h.01c.4.27.66.72.66,1.2401v10.8c0,1.17.96,2.13,2.13,2.13h5.87v-10.5c0-.18.03-.35.1-.51.9301.4,1.82.67,2.71.84.06.01.12.02.19.04v23.17c0,1.08.88,1.96,1.96,1.96h56.43c1.44,0,2.61-1.17,2.61-2.61v-57.4301c0-1.08-.88-1.96-1.96-1.96h-50.54c-.28,0-.55-.08-.77-.22.02-.06.03-.13.04-.19.06-.36.11-.73.16-1.09.05-.43.1-.82.14-1.22l.02-.21c.1299-.05.27-.07.41-.07h50.54c2.73,0,4.96,2.23,4.96,4.96v45.04h5.87c1.17,0,2.13-.96,2.13-2.13v-19.72c0-.83.67-1.5,1.5-1.5s1.5.67,1.5,1.5Z"/><path d="m75.8351,60.74l-5,31c-.12.74-.75,1.26-1.48,1.26-.08,0-.16-.01-.24-.02-.82-.13-1.37-.9-1.24-1.72l5-31c.13-.82.9-1.38,1.72-1.2401.82.13,1.37.9,1.24,1.72Z"/><path d="m91.4651,77.5l-9,10c-.29.33-.7.5-1.11.5-.36,0-.72-.13-1-.39-.62-.55-.67-1.5-.11-2.11l8.18-9.1-7.28-10.02c-.49-.67-.34-1.61.33-2.09.67-.49,1.61-.34,2.09.33l8,11c.42.57.38,1.36-.1,1.88Z"/><path d="m65.4651,65.51l-10.03,10.95,8.98,8.98c.59.58.59,1.54,0,2.12-.29.29-.68.44-1.06.44s-.77-.15-1.06-.44l-10-10c-.57-.57-.59-1.48-.05-2.07l11-12c.56-.61,1.51-.66,2.12-.1.61.56.66,1.5099.1,2.12Z"/><path d="m77.3551,10h-5c-.8286,0-1.5-.6714-1.5-1.5s.6714-1.5,1.5-1.5h5c.8286,0,1.5.6714,1.5,1.5s-.6714,1.5-1.5,1.5Z"/><path d="m90.3551,10h-5c-.8286,0-1.5-.6714-1.5-1.5s.6714-1.5,1.5-1.5h5c.8286,0,1.5.6714,1.5,1.5s-.6714,1.5-1.5,1.5Z"/><path d="m103.3551,10h-5c-.8286,0-1.5-.6714-1.5-1.5s.6714-1.5,1.5-1.5h5c.8286,0,1.5.6714,1.5,1.5s-.6714,1.5-1.5,1.5Z"/><path d="m39.3851,43.2c0,.0099.0099.0099.0099.0099.01,0,.02,0,.03-.0099h-.04Zm-9.13-6.02h-.25c.16,0,.3199,0,.48.01-.08-.01-.15-.01-.23-.01Zm-1.75,17.92c.15,0,.3.01.47.01.06,0,.12-.01.18-.01-.23.01-.45,0-.65,0Zm-.45-17.98c-.23,0-.47.01-.7.02.45-.01.9-.03,1.34.02-.21-.03-.4301-.04-.64-.04Zm-.2-9.8c.05.03.08.05.11.05.03,0,.06-.02.1-.05-.07.06-.12.06-.21,0Zm-2.92,30.13c-.06,0-.11.0099-.18.06.12-.08.22-.05.3199-.04-.05-.01-.09-.02-.14-.02Z"/><path d="m55.2451,43.77c-.35-.67-.81-1.2599-1.33-1.8-.62-.66-1.33-1.21-2.08-1.72-.46-.32-.94-.63-1.44-.89-.65-.34-1.3-.68-1.97-.99-.57-.26-1.16-.49-1.75-.71-.48-.19-.97-.34-1.46-.51-.29-.1-.59-.18-.89-.28-.14-.05-.16-.09-.14-.24.01-.03.02-.06.02-.09.15-.71.3-1.42.4301-2.14.0699-.35.12-.71.16-1.06.05-.39.09-.77.13-1.16.04-.35.09-.71.09-1.07.02-1.07.04-2.15-.1-3.22-.11-.88-.27-1.75-.56-2.58-.29-.86-.69-1.67-1.28-2.37-.37-.43-.8-.79-1.3-1.07-.73-.4-1.52-.57-2.34-.59h-.13c-.11,0-.21,0-.32.01-.15.01-.3.02-.45.04-.62.0601-1.23.2-1.82.38-.97.31-1.9.72-2.8,1.22-.92.51-1.8,1.07-2.64,1.7-.47.35-.93.72-1.39,1.1-.48.39-.95.79-1.4,1.23-.13.12-.27.2401-.42.36-.04.03-.07.05-.1.05-.03,0-.06-.02-.11-.05-.09-.07-.18-.14-.27-.22-.24-.22-.48-.44-.73-.65-.14-.13-.28-.26-.42-.38-.44-.37-.89-.7401-1.35-1.09-.41-.31-.81-.6-1.23-.87-.15-.11-.31-.21-.47-.31-.8-.5-1.61-.98-2.47-1.36-.67-.3-1.34-.56-2.04-.76-.59-.17-1.19-.29-1.8-.33-.2-.01-.4-.02-.6-.02-.29,0-.57.02-.86.0601-.48.08-.95.2-1.39.42-.59.29-1.12.68-1.54,1.2-.33.4-.62.83-.84,1.29-.25.53-.45,1.08-.59,1.64-.25.99-.41,2-.42,3.02,0,.12-.02.23-.02.35-.01.29-.02.58-.02.87.01.28.03.56.05.84,0,.11,0,.22.01.32.03.34.06.68.1,1.01.05.41.09.81.15,1.22.15.99.34,1.97.59,2.94.02.08.05.16.0099.27-.05.01-.1.04-.15.06-.23.07-.47.13-.7.21-.66.22-1.32.44-1.98.68-1.05.39-2.08.84-3.08,1.38-.74.41-1.46.84-2.15,1.33-.79.57-1.5099,1.22-2.14,1.96-.42.5-.77,1.04-1.05,1.64-.23.5-.39,1.03-.44,1.59-.06.79.06,1.54.35,2.28.22.56.53,1.06.88,1.53.51.69,1.11,1.28,1.75,1.83.72.6201,1.51,1.16,2.33,1.64.77.46,1.5601.85,2.38,1.22.97.44,1.97.81,2.98,1.15.25.09.51.16.75.24q.28.09.22.3701c-.1.5-.22,1-.32,1.5099-.14.66-.25,1.33-.33,2-.04.39-.09.77-.12,1.16-.04.51-.08,1.02-.09,1.54-.02.47-.02.95.04,1.42.04.35.04.7.08,1.04.09.68.2,1.35.4,2,.2.65.44,1.29.8,1.87.33.53.71,1.03,1.21,1.44.86.69,1.85,1.01,2.9301,1.08.12.0099.25.0099.38.0099.67,0,1.33-.1,1.98-.2599,1.03-.25,2.02-.64,2.97-1.1.72-.36,1.42-.77,2.09-1.2.28-.19.57-.38.84-.57.5-.35.9901-.72,1.47-1.11.51-.42,1.01-.84,1.49-1.3.17-.16.36-.32.57-.49.07.05.11.08.15.12.54.54,1.11,1.03,1.69,1.52.74.62,1.5,1.2,2.3,1.74.95.63,1.93,1.22,2.98,1.68.16.07.32.14.48.2.19.08.38.15.58.22.14.04.28.09.42.13.34.11.68.2,1.03.27.06.02.12.03.18.04.31.06.62.11.94.11h.01c.09,0,.17.02.26.02h.38c.09,0,.19-.02.29-.02.64-.02,1.24-.19,1.82-.46.7-.33,1.26-.83,1.73-1.43.51-.63.85-1.34,1.12-2.1.43-1.24.64-2.52.68-3.82.01-.09,0-.18.02-.2599.06-.44.04-.88.03-1.3101-.02-.48-.0601-.95-.11-1.42-.03-.45-.07-.89-.13-1.33-.12-.9-.27-1.79-.48-2.66-.04-.18-.08-.36-.12-.54-.01-.1.02-.15.1-.19.06-.03.13-.05.19-.07.3-.1.59-.2.89-.3,1.13-.36,2.22-.8,3.29-1.31,1.13-.53,2.21-1.15,3.22-1.87.92-.65,1.75-1.41,2.47-2.28.46-.56.83-1.17,1.08-1.85.19-.51.31-1.03.32-1.56.02-.8701-.21-1.6801-.61-2.4301Zm-25.09-15.09c.28-.25.56-.49.83-.73.59-.51,1.19-.9901,1.82-1.45.56-.41,1.13-.79,1.72-1.14.88-.52,1.79-.98,2.76-1.29.41-.14.82-.25,1.24-.31.25-.04.5-.06.75-.06.2,0,.41.02.61.05.6299.1,1.12.43,1.49.94.35.49.59,1.04.77,1.62.18.56.28,1.13.36,1.71.04.35.04.71.08,1.07.06.41.05.83.05,1.25-.01.19-.03.38-.04.58,0,.04-.01.09-.01.14,0,.48-.06.95-.11,1.42-.07.7-.18,1.38-.31,2.07-.08.45-.19.89-.28,1.34-.05.22-.1.28-.21.28-.05,0-.11-.01-.19-.03-.62-.13-1.24-.27-1.86-.38-.81-.14-1.62-.27-2.44-.39-.54-.08-1.09-.15-1.64-.22-.25-.03-.5-.05-.75-.07-.02,0-.04,0-.06-.0099-.42-.06-.38-.04-.61-.36-.73-1.03-1.49-2.04-2.29-3.0099-.46-.56-.92-1.11-1.38-1.65-.2-.24-.41-.46-.62-.69-.05-.06-.09-.12-.15-.19.14-.2.31-.34.47-.49Zm-13.82,20.71c.05-.11.08-.22.15-.3101h.02c.06,0,.0699.04.09.08.26.47.51.94.77,1.41.27.5.55,1,.84,1.49.47.78.95,1.56,1.42,2.34.03.05.06.12.09.19-.07.04-.14.06-.2.06-.05,0-.1-.0099-.14-.02-.92-.13-1.84-.26-2.76-.4-.53-.08-1.05-.2-1.58-.3h-.02c-.27-.07-.29-.11-.21-.37.28-.79.55-1.59.83-2.39.22-.6.47-1.19.7-1.78Zm-1.45-10.4301c-.03-.1-.0601-.21-.08-.31-.02-.08.01-.14.09-.16.09-.03.19-.06.28-.07.95-.18,1.89-.36,2.84-.52.51-.09,1.03-.15,1.55-.22h.11c.04.1-.02.16-.06.23-.28.45-.57.9-.84,1.36-.35.58-.7,1.17-1.03,1.76-.28.48-.55.98-.82,1.47-.11.2-.2.4-.31.6-.02.04-.06.08-.1.13-.1-.07-.11-.17-.15-.26-.23-.57-.46-1.13-.67-1.71-.28-.76-.54-1.53-.81-2.3Zm4.37,10.04c-.44-.83-.87-1.67-1.3-2.51-.03-.05-.05-.1-.08-.15-.08-.13-.07-.25,0-.39.37-.73.74-1.47,1.12-2.2.25-.47.5-.94.77-1.41.48-.83.96-1.66,1.46-2.48.48-.76.99-1.51,1.47-2.27.11-.17.25-.26.45-.28h.09c.31-.02.62-.06.93-.06.73-.02,1.47-.08,2.21-.08h.29c.1,0,.19,0,.29-.01h.05c.12,0,.24-.01.35-.02.23-.01.47-.02.7-.02.21,0,.43.01.64.04.12.01.23.01.35.02h1.21c.08,0,.15,0,.23.01.07,0,.13,0,.2.01.09,0,.18.0099.28.03h.08c.53.03,1.05.05,1.57.07.05,0,.1.01.15.01.17.02.31.1.4.25.21.33.44.64.64.97.5.79.99,1.58,1.47,2.38.39.64.75,1.29,1.12,1.94.54.95,1.04,1.91,1.52,2.88.02.03.03.06.04.08.14.2.13.38.02.6-.43.79-.82,1.61-1.25,2.4-.75,1.4-1.54,2.76-2.38,4.1-.36.58-.73,1.15-1.09,1.72-.03.04-.06.08-.08.12-.08.13-.19.18-.34.19-.4.02-.8.04-1.19.07-.52.04-1.05.0099-1.57.06-.3199.03-.62.03-.92.03-.06,0-.12.01-.18.01-.17,0-.32-.01-.47-.01h-.04c-.14,0-.28.01-.4.01h-1.45c-.27-.01-.54-.03-.81-.04-.28-.01-.55-.01-.82-.02-.29,0-.58.01-.87-.04-.08-.01-.17-.01-.26-.01h-.21c-.09-.01-.19,0-.29-.01-.44-.02-.46-.04-.71-.39-.77-1.15-1.52-2.32-2.22-3.52-.4-.6899-.79-1.3799-1.17-2.08Zm16.94,5.5c1.1299-1.8,2.18-3.64,3.18-5.52,0,0,.02-.01.04-.02.03.04.07.09.09.14.35.87.71,1.74,1.05,2.61.21.55.4,1.1.59,1.65.13.38.12.39-.27.48-.85.2-1.71.35-2.57.49-.68.11-1.36.19-2.04.29h-.0099c-.02,0-.03-.01-.06-.02-.01-.02-.01-.03-.01-.04,0-.02,0-.04.01-.06Zm3.5099-11.95c-.09.22-.19.44-.28.65-.01.0099-.02.0099-.03.0099,0,0-.0099,0-.0099-.0099h-.01c-.02,0-.04-.01-.05-.03-.02-.02-.03-.04-.04-.06-.22-.4-.43-.8-.66-1.2-.29-.51-.57-1.03-.87-1.54-.5-.84-1-1.66-1.5-2.49-.04-.06-.06-.12-.09-.21.18.02.33.02.49.05.95.15,1.91.31,2.86.47.39.07.76.15,1.14.23.11.02.21.05.31.08.13.04.16.1.13.22-.02.08-.04.15-.07.23-.39,1.22-.84,2.41-1.32,3.6Zm-12.73-10.57c.24-.28.49-.54.74-.81.04-.04.07-.08.11-.11.05-.05.1-.08.14-.08.04,0,.09.03.15.09.11.1.21.2.3.31.91,1.03,1.78,2.08,2.6,3.18.04.05.06.11.11.19-.07.02-.1.04-.12.04h-.56c-.22,0-.44-.01-.66-.03-.12-.02-.24-.02-.35-.02h-3.06c-.14,0-.29.02-.43.03-.3701.01-.7401.01-1.11.01-.01,0-.03-.02-.04-.03-.03-.07.02-.11.06-.15.26-.34.52-.67.78-1.01.45-.54.89-1.07,1.34-1.61Zm-13.74-2.73c.01-.91.12-1.8.35-2.68.16-.57.35-1.13.67-1.63.27-.41.58-.76,1.03-.96.06-.02.11-.05.16-.06.35-.11.7-.18,1.06-.18.13,0,.25.01.38.03.25.03.5.06.74.1.67.12,1.3.34,1.92.6.74.31,1.45.69,2.14,1.11.79.47,1.54,1.01,2.27,1.58.08.06.15.12.23.18.32.25.63.52.94.79.14.13.28.25.43.38.19.16.37.33.56.5.04.05.08.11.11.16-.02.04-.02.07-.04.09-.2.22-.41.44-.61.67-.18.2-.36.4-.53.61-.52.62-1.05,1.25-1.55,1.89-.51.64-1,1.31-1.5,1.97-.12.15-.23.3-.34.46-.08.11-.17.16-.29.18-.09,0-.17.03-.26.04-.65.07-1.31.14-1.96.22-1.6.19-3.19.48-4.7599.82-.09.02-.15.03-.19.03-.1,0-.1201-.06-.16-.25-.23-.91-.41-1.82-.55-2.74-.09-.62-.15-1.25-.21-1.88-.05-.68-.05-1.35-.04-2.03Zm-.95,23.98c-.05,0-.11-.02-.2-.04-.9-.27-1.79-.58-2.66-.94-.67-.28-1.34-.57-1.98-.91-.95-.5-1.86-1.05-2.69-1.73-.59-.48-1.14-1-1.58-1.62-.24-.34-.47-.69-.6-1.09-.0699-.23-.1299-.47-.16-.71-.03-.31.06-.61.16-.91.2-.58.55-1.06.96-1.51.77-.86,1.69-1.53,2.68-2.12,1.07-.64,2.2-1.15,3.36-1.61.84-.33,1.69-.61,2.5601-.86.0699-.02.15-.03.25-.05.04.08.0699.13.08.19.49,1.59,1.09,3.15,1.72,4.69.26.63.53,1.25.81,1.87.09.18.09.34.01.52-.48,1.05-.92,2.1-1.34,3.17-.43,1.13-.85,2.27-1.2,3.43-.05.17-.09.23-.18.23Zm13.92,10.07c-.22.22-.44.43-.68.64-.29.26-.58.51-.88.76-.59.49-1.2.95-1.83,1.3799-.7.4901-1.43.9301-2.19,1.32-.75.37-1.52.69-2.33.9-.4.1-.79.2-1.2.21-.08,0-.16.03-.23.03-.09.01-.18.01-.27.01-.42,0-.83-.07-1.22-.23-.41-.16-.73-.47-.99-.82-.27-.37-.46-.79-.6201-1.22-.2-.56-.3199-1.13-.42-1.72-.11-.67-.12-1.35-.12-2.03.01-.38,0-.76.01-1.13.02-.38.05-.7599.09-1.13.0601-.5.1201-1.0099.21-1.5.14-.77.3-1.54.46-2.31.01-.04.02-.08.03-.11.02-.04.05-.07.08-.09.02-.02.05-.03.09-.03h.02c.06.01.13.02.2.04.81.15,1.62.31,2.43.44.64.11,1.28.19,1.93.27.43.06.86.11,1.3.16.28.03.57.05.86.0699.04.01.08.01.12.01.49.04.49.05.78.44.61.81,1.21,1.62,1.83,2.41.42.54.87,1.07,1.32,1.59.4.46.81.92,1.21,1.38.04.04.06.09.1.14-.03.05-.05.09-.09.12Zm2.02-2.08c-.09.1-.14.15-.2.15s-.12-.05-.21-.15c-.36-.4-.71-.8-1.05-1.21-.4-.47-.8-.95-1.19-1.4301-.22-.28-.4399-.56-.66-.84-.06-.07-.1-.15-.16-.23.0699-.05.12-.06.18-.06.05,0,.09.0099.14.02.16.01.32.03.4901.03h4.5099c.19,0,.38-.02.58-.04.18-.0099.36-.03.53,0,.04.1-.02.15-.06.2-.32.44-.65.87-.99,1.3-.3.39-.61.77-.9301,1.15-.3199.38-.64.75-.98,1.11Zm14.17,4.11c-.17.66-.38,1.3-.75,1.89-.14.24-.31.46-.5099.66-.33.34-.7401.53-1.2.62-.23.05-.46.07-.69.07-.31,0-.62-.04-.93-.1-.7-.12-1.37-.35-2.02-.63-1.36-.58-2.6-1.38-3.78-2.27-.58-.43-1.15-.89-1.69-1.38-.3-.28-.62-.56-.93-.84-.05-.05-.09-.11-.15-.18.13-.15.24-.3.36-.44.3-.35.62-.69.92-1.05.36-.44.72-.88,1.08-1.33.73-.93,1.43-1.89,2.11-2.85.02-.03.04-.07.07-.1.08-.12.19-.17.34-.19.61-.05,1.21-.11,1.82-.18.84-.12,1.69-.23,2.53-.38.89-.15,1.77-.34,2.66-.5099.04-.01.09-.02.14-.02h.02c.08,0,.13.04.16.11.03.07.05.13.06.2.21.92.4,1.86.51,2.8.05.45.11.91.16,1.36v.03c.02.59.07,1.18.05,1.77-.03.99-.1,1.97-.34,2.9399Zm10.95-18.6299c-.16.52-.43,1-.78,1.42-.19.22-.38.44-.59.64-.39.41-.82.77-1.28,1.09-.72.51-1.47.98-2.26,1.38-1.13.57-2.29,1.07-3.48,1.47-.35.12-.7.24-1.05.35-.08.03-.17.04-.29.08-.05-.12-.09-.21-.12-.3-.4-1.2599-.86-2.49-1.37-3.71-.31-.74-.64-1.48-.97-2.21-.09-.22-.19-.43-.29-.64-.06-.12-.06-.23,0-.36.23-.52.47-1.04.69-1.57.36-.86.71-1.72,1.04-2.59.24-.61.44-1.24.66-1.86.06-.16.1-.32.15-.48.01-.04.02-.08.04-.11.0099-.03.03-.05.04-.07.03-.04.06-.05.1-.05.04,0,.1.01.17.03.03.01.06.02.08.03.99.29,1.96.62,2.91,1.02,1.22.5099,2.41,1.09,3.51,1.8199.5099.33,1,.7,1.46,1.11.2.17.38.35.55.54.17.19.33.39.4901.59.31.4.54.84.65,1.35.08.35.05.69-.06,1.03Z"/><path d="m24.9351,57.45c-.06,0-.11.0099-.18.06.12-.08.22-.05.3199-.04-.05-.01-.09-.02-.14-.02Zm3.12-20.33c-.23,0-.47.01-.7.02.45-.01.9-.03,1.34.02-.21-.03-.4301-.04-.64-.04Zm.45,17.98c.15,0,.3.01.47.01.06,0,.12-.01.18-.01-.23.01-.45,0-.65,0Zm1.75-17.92h-.25c.16,0,.3199,0,.48.01-.08-.01-.15-.01-.23-.01Zm9.13,6.02c0,.0099.0099.0099.0099.0099.01,0,.02,0,.03-.0099h-.04Zm0,0c0,.0099.0099.0099.0099.0099.01,0,.02,0,.03-.0099h-.04Zm-11.33-6.08c-.23,0-.47.01-.7.02.45-.01.9-.03,1.34.02-.21-.03-.4301-.04-.64-.04Zm.45,17.98c.15,0,.3.01.47.01.06,0,.12-.01.18-.01-.23.01-.45,0-.65,0Zm1.75-17.92h-.25c.16,0,.3199,0,.48.01-.08-.01-.15-.01-.23-.01Zm-5.32,20.27c-.06,0-.11.0099-.18.06.12-.08.22-.05.3199-.04-.05-.01-.09-.02-.14-.02Zm2.92-30.13c.05.03.08.05.11.05.03,0,.06-.02.1-.05-.07.06-.12.06-.21,0Zm-2.92,30.13c-.06,0-.11.0099-.18.06.12-.08.22-.05.3199-.04-.05-.01-.09-.02-.14-.02Zm3.12-20.33c-.23,0-.47.01-.7.02.45-.01.9-.03,1.34.02-.21-.03-.4301-.04-.64-.04Zm.45,17.98c.15,0,.3.01.47.01.06,0,.12-.01.18-.01-.23.01-.45,0-.65,0Zm1.75-17.92h-.25c.16,0,.3199,0,.48.01-.08-.01-.15-.01-.23-.01Zm9.13,6.02c0,.0099.0099.0099.0099.0099.01,0,.02,0,.03-.0099h-.04Zm-14.45,14.25c-.06,0-.11.0099-.18.06.12-.08.22-.05.3199-.04-.05-.01-.09-.02-.14-.02Zm3.12-20.33c-.23,0-.47.01-.7.02.45-.01.9-.03,1.34.02-.21-.03-.4301-.04-.64-.04Zm.45,17.98c.15,0,.3.01.47.01.06,0,.12-.01.18-.01-.23.01-.45,0-.65,0Zm1.75-17.92h-.25c.16,0,.3199,0,.48.01-.08-.01-.15-.01-.23-.01Zm9.13,6.02c0,.0099.0099.0099.0099.0099.01,0,.02,0,.03-.0099h-.04Zm0,0c0,.0099.0099.0099.0099.0099.01,0,.02,0,.03-.0099h-.04Zm-11.33-6.08c-.23,0-.47.01-.7.02.45-.01.9-.03,1.34.02-.21-.03-.4301-.04-.64-.04Zm.45,17.98c.15,0,.3.01.47.01.06,0,.12-.01.18-.01-.23.01-.45,0-.65,0Zm1.75-17.92h-.25c.16,0,.3199,0,.48.01-.08-.01-.15-.01-.23-.01Zm-5.32,20.27c-.06,0-.11.0099-.18.06.12-.08.22-.05.3199-.04-.05-.01-.09-.02-.14-.02Zm0,0c-.06,0-.11.0099-.18.06.12-.08.22-.05.3199-.04-.05-.01-.09-.02-.14-.02Zm3.12-20.33c-.23,0-.47.01-.7.02.45-.01.9-.03,1.34.02-.21-.03-.4301-.04-.64-.04Zm.45,17.98c.15,0,.3.01.47.01.06,0,.12-.01.18-.01-.23.01-.45,0-.65,0Zm1.75-17.92h-.25c.16,0,.3199,0,.48.01-.08-.01-.15-.01-.23-.01Zm9.13,6.02c0,.0099.0099.0099.0099.0099.01,0,.02,0,.03-.0099h-.04Zm0,0c0,.0099.0099.0099.0099.0099.01,0,.02,0,.03-.0099h-.04Zm-11.33-6.08c-.23,0-.47.01-.7.02.45-.01.9-.03,1.34.02-.21-.03-.4301-.04-.64-.04Zm.45,17.98c.15,0,.3.01.47.01.06,0,.12-.01.18-.01-.23.01-.45,0-.65,0Zm1.75-17.92h-.25c.16,0,.3199,0,.48.01-.08-.01-.15-.01-.23-.01Zm-5.32,20.27c-.06,0-.11.0099-.18.06.12-.08.22-.05.3199-.04-.05-.01-.09-.02-.14-.02Zm0,0c-.06,0-.11.0099-.18.06.12-.08.22-.05.3199-.04-.05-.01-.09-.02-.14-.02Zm14.45-14.25c0,.0099.0099.0099.0099.0099.01,0,.02,0,.03-.0099h-.04Zm-11.33-6.08c-.23,0-.47.01-.7.02.45-.01.9-.03,1.34.02-.21-.03-.4301-.04-.64-.04Zm.45,17.98c.15,0,.3.01.47.01.06,0,.12-.01.18-.01-.23.01-.45,0-.65,0Zm1.75-17.92h-.25c.16,0,.3199,0,.48.01-.08-.01-.15-.01-.23-.01Zm9.13,6.02c0,.0099.0099.0099.0099.0099.01,0,.02,0,.03-.0099h-.04Zm-11.33-6.08c-.23,0-.47.01-.7.02.45-.01.9-.03,1.34.02-.21-.03-.4301-.04-.64-.04Zm.45,17.98c.15,0,.3.01.47.01.06,0,.12-.01.18-.01-.23.01-.45,0-.65,0Zm1.75-17.92h-.25c.16,0,.3199,0,.48.01-.08-.01-.15-.01-.23-.01Zm-5.32,20.27c-.06,0-.11.0099-.18.06.12-.08.22-.05.3199-.04-.05-.01-.09-.02-.14-.02Z"/><path d="m32.9151,46.07c.08,2.56-2.03,5.0099-4.97,5.0099-2.91.01-5-2.3799-5.01-4.99,0-2.67,2.18-5.02,5.02-5.01,2.8.01,5.02,2.34,4.96,4.9901Z"/></g></g></svg>