<?xml version="1.0" encoding="UTF-8"?><svg id="Layer_2" xmlns="http://www.w3.org/2000/svg" viewBox="0 0 118.5 100.5"><g id="Components"><g id="_87cde4bc-ff08-4d91-82e9-8d08b406b96a_5"><path d="m113.54,32.5H32.77c-2.91,0-5.27,2.36-5.27,5.27v57.77c0,2.73,2.22,4.96,4.96,4.96h80.43c3.09,0,5.61-2.52,5.61-5.61v-57.4301c0-2.73-2.22-4.96-4.96-4.96Zm-59.04,3h59.04c1.08,0,1.96.88,1.96,1.96v5.42h-61v-7.38Zm-24,2.27c0-1.25,1.02-2.27,2.27-2.27h18.73v7.38h-20.5c-.18,0-.34.03-.5.09v-5.2Zm85,57.1201c0,1.4399-1.17,2.61-2.61,2.61H32.46c-1.08,0-1.96-.88-1.96-1.96v-49.75c.16.06.32.09.5.09h84.5v49.01Z" style="fill:#fff;"/><path d="m58.87,0H5.13C2.3,0,0,2.3,0,5.13v74.74c0,2.83,2.3,5.13,5.13,5.13h15.87c.83,0,1.5-.67,1.5-1.5s-.67-1.5-1.5-1.5H5.13c-1.17,0-2.13-.96-2.13-2.13V17h58v10c0,.83.67,1.5,1.5,1.5s1.5-.67,1.5-1.5V5.13c0-2.83-2.3-5.13-5.13-5.13Zm2.13,14H27.67v-6c0-.83-.67-1.5-1.5-1.5s-1.5.67-1.5,1.5v6H3V5.13c0-1.17.96-2.13,2.13-2.13h53.74c1.17,0,2.13.96,2.13,2.13v8.87Z" style="fill:#fff;"/><path d="m8.5,11.25c-1.5166,0-2.75-1.2334-2.75-2.75s1.2334-2.75,2.75-2.75,2.75,1.2334,2.75,2.75-1.2334,2.75-2.75,2.75Zm0-4c-.6895,0-1.25.5605-1.25,1.25s.5605,1.25,1.25,1.25,1.25-.5605,1.25-1.25-.5605-1.25-1.25-1.25Z" style="fill:#fff;"/><path d="m17.5,11.25c-1.5166,0-2.75-1.2334-2.75-2.75s1.2334-2.75,2.75-2.75,2.75,1.2334,2.75,2.75-1.2334,2.75-2.75,2.75Zm0-4c-.6895,0-1.25.5605-1.25,1.25s.5605,1.25,1.25,1.25,1.25-.5605,1.25-1.25-.5605-1.25-1.25-1.25Z" style="fill:#fff;"/><path d="m24.28,20.38c-.03-.05-.08-.09-.1201-.13-.11-.1-.24-.17-.37-.2-.04-.02-.08-.03-.12-.03-.05-.02-.11-.02-.17-.02H6.5c-.06,0-.12,0-.17.02-.04,0-.08.01-.12.03-.13.03-.26.1-.37.2-.04.04-.09.08-.1201.13-.15.18-.22.4-.22.62v19.5c0,.22.07.44.22.62.03.05.08.09.1201.13.11.1.24.17.37.2.04.02.08.03.12.03.05.02.11.02.17.02h17c.06,0,.12,0,.17-.02.04,0,.08-.01.12-.03.13-.03.26-.1.37-.2.04-.04.09-.08.1201-.13.15-.18.22-.4.22-.62v-19.5c0-.22-.07-.44-.22-.62Zm-2.98,1.62l-6.3,7.23-6.3-7.23h12.6Zm-13.8,1.67l6.17,7.08-6.17,7.08v-14.16Zm1.2,15.83l6.3-7.23,6.3,7.23h-12.6Zm13.8-1.67l-6.17-7.08,6.17-7.08v14.16Z" style="fill:#fff;"/><path d="m56.5,21.5h-26c-.5527,0-1-.4478-1-1s.4473-1,1-1h26c.5527,0,1,.4478,1,1s-.4473,1-1,1Z" style="fill:#fff;"/><path d="m56.5,29.5h-26c-.5527,0-1-.4478-1-1s.4473-1,1-1h26c.5527,0,1,.4478,1,1s-.4473,1-1,1Z" style="fill:#fff;"/><path d="m24.5,47.332H6.502c-.46,0-.832-.3726-.832-.832s.3721-.832.832-.832h17.998c.46,0,.832.3726.832.832s-.3721.832-.832.832Z" style="fill:#fff;"/><path d="m24.5,54.832H6.502c-.46,0-.832-.3726-.832-.832s.3721-.832.832-.832h17.998c.46,0,.832.3726.832.832s-.3721.832-.832.832Z" style="fill:#fff;"/><path d="m24.5,62.332H6.502c-.46,0-.832-.3726-.832-.832s.3721-.832.832-.832h17.998c.46,0,.832.3726.832.832s-.3721.832-.832.832Z" style="fill:#fff;"/><path d="m24.5,69.832H6.502c-.46,0-.832-.3726-.832-.832s.3721-.832.832-.832h17.998c.46,0,.832.3726.832.832s-.3721.832-.832.832Z" style="fill:#fff;"/><path d="m24.5,77.332H6.502c-.46,0-.832-.3726-.832-.832s.3721-.832.832-.832h17.998c.46,0,.832.3726.832.832s-.3721.832-.832.832Z" style="fill:#fff;"/><path d="m37,39.75h-3c-.4141,0-.75-.3359-.75-.75s.3359-.75.75-.75h3c.4141,0,.75.3359.75.75s-.3359.75-.75.75Z" style="fill:#fff;"/><path d="m53.5,77.5h-17c-.5527,0-1-.4478-1-1s.4473-1,1-1h17c.5527,0,1,.4478,1,1s-.4473,1-1,1Z" style="fill:#fff;"/><path d="m82.5,77.5h-18c-.5527,0-1-.4478-1-1s.4473-1,1-1h18c.5527,0,1,.4478,1,1s-.4473,1-1,1Z" style="fill:#fff;"/><path d="m110.5,77.5h-18c-.5527,0-1-.4478-1-1s.4473-1,1-1h18c.5527,0,1,.4478,1,1s-.4473,1-1,1Z" style="fill:#fff;"/><path d="m53.5,81.5h-17c-.5527,0-1-.4478-1-1s.4473-1,1-1h17c.5527,0,1,.4478,1,1s-.4473,1-1,1Z" style="fill:#fff;"/><path d="m82.5,81.5h-18c-.5527,0-1-.4478-1-1s.4473-1,1-1h18c.5527,0,1,.4478,1,1s-.4473,1-1,1Z" style="fill:#fff;"/><path d="m110.5,81.5h-18c-.5527,0-1-.4478-1-1s.4473-1,1-1h18c.5527,0,1,.4478,1,1s-.4473,1-1,1Z" style="fill:#fff;"/><path d="m53.5,85.5h-17c-.5527,0-1-.4478-1-1s.4473-1,1-1h17c.5527,0,1,.4478,1,1s-.4473,1-1,1Z" style="fill:#fff;"/><path d="m82.5,85.5h-18c-.5527,0-1-.4478-1-1s.4473-1,1-1h18c.5527,0,1,.4478,1,1s-.4473,1-1,1Z" style="fill:#fff;"/><path d="m110.5,85.5h-18c-.5527,0-1-.4478-1-1s.4473-1,1-1h18c.5527,0,1,.4478,1,1s-.4473,1-1,1Z" style="fill:#fff;"/><path d="m53.5,89.5h-17c-.5527,0-1-.4478-1-1s.4473-1,1-1h17c.5527,0,1,.4478,1,1s-.4473,1-1,1Z" style="fill:#fff;"/><path d="m82.5,89.5h-18c-.5527,0-1-.4478-1-1s.4473-1,1-1h18c.5527,0,1,.4478,1,1s-.4473,1-1,1Z" style="fill:#fff;"/><path d="m110.5,89.5h-18c-.5527,0-1-.4478-1-1s.4473-1,1-1h18c.5527,0,1,.4478,1,1s-.4473,1-1,1Z" style="fill:#fff;"/><path d="m53.5,93.5h-17c-.5527,0-1-.4478-1-1s.4473-1,1-1h17c.5527,0,1,.4478,1,1s-.4473,1-1,1Z" style="fill:#fff;"/><path d="m82.5,93.5h-18c-.5527,0-1-.4478-1-1s.4473-1,1-1h18c.5527,0,1,.4478,1,1s-.4473,1-1,1Z" style="fill:#fff;"/><path d="m110.5,93.5h-18c-.5527,0-1-.4478-1-1s.4473-1,1-1h18c.5527,0,1,.4478,1,1s-.4473,1-1,1Z" style="fill:#fff;"/><path d="m46,39.75h-3c-.4141,0-.75-.3359-.75-.75s.3359-.75.75-.75h3c.4141,0,.75.3359.75.75s-.3359.75-.75.75Z" style="fill:#fff;"/><path d="m105.5,38.25h-48c-.4141,0-.75-.3359-.75-.75s.3359-.75.75-.75h48c.4141,0,.75.3359.75.75s-.3359.75-.75.75Z" style="fill:#fff;"/><path d="m72.5,41.25h-15c-.4141,0-.75-.3359-.75-.75s.3359-.75.75-.75h15c.4141,0,.75.3359.75.75s-.3359.75-.75.75Z" style="fill:#fff;"/><path d="m110.5,72.2603H35.5c-.4199,0-.7598-.3403-.7598-.7603v-21c0-.4199.3398-.7603.7598-.7603h75c.4199,0,.7598.3403.7598.7603v21c0,.4199-.3398.7603-.7598.7603Zm-74.2402-1.5205h73.4805v-19.4795H36.2598v19.4795Z" style="fill:#fff;"/></g></g></svg>