<?xml version="1.0" encoding="UTF-8"?><svg id="Layer_2" xmlns="http://www.w3.org/2000/svg" viewBox="0 0 108.4674 95.62"><g id="Components"><g id="_08e615c5-1dd7-4297-9d6d-ab85b3debc53_5"><path d="m25.6925,50.7714c-.0825,0-.1665-.0068-.251-.0205-.8516-.1372-1.4312-.9395-1.2935-1.7915l3.9189-24.2969c.1367-.8516.9375-1.4312,1.7915-1.2935.8516.1372,1.4312.9395,1.2935,1.7915l-3.9189,24.2969c-.1235.7676-.7871,1.314-1.5405,1.314Z" style="fill:#fff;"/><path d="m35.0953,46.852c-.3726,0-.7461-.1323-1.0449-.4009-.6416-.5776-.6934-1.5654-.1162-2.207l6.2075-6.8965-5.5259-7.5981c-.5078-.6978-.3535-1.6753.3447-2.1826.6987-.5078,1.6753-.353,2.1826.3447l6.2705,8.6216c.4341.5967.3916,1.416-.1021,1.9644l-7.0542,7.8374c-.3086.3428-.7344.5171-1.1621.5171Z" style="fill:#fff;"/><path d="m20.9879,46.852c-.3999,0-.7998-.1523-1.105-.4575l-7.8379-7.8374c-.5913-.5918-.6123-1.5439-.0469-2.1606l8.6216-9.4058c.582-.6367,1.5708-.6797,2.2075-.0962.6362.583.6792,1.5718.0962,2.2075l-7.6104,8.3032,6.7798,6.7793c.6104.6104.6104,1.5996,0,2.21-.3052.3052-.7051.4575-1.105.4575Z" style="fill:#fff;"/><path d="m108.38,89.5l-1.77-9.37c-.16-.85-.9901-1.4-1.83-1.2401-.85.16-1.4.97-1.24,1.82l1.77,9.37c.11.6-.05,1.21-.44,1.6801-.39.47-.96.74-1.5699.74h-7.46c-.69,0-1.35-.36-1.72-.94l-5.6-8.7c.09-.07.18-.15.26-.24.23-.21.44-.43.64-.67.1-.11.2-.23.29-.36.09-.12.18-.24.26-.37.14-.21.27-.43.38-.66.08-.15.16-.3.22-.45.13-.28.23-.56.31-.85.05-.1801.1-.35.14-.53.04-.17.08-.34.11-.52.05-.38.08-.7599.08-1.15,0-4.17-3.39-7.56-7.56-7.56-.24,0-.48.01-.71.04-.36.03-.7.08-1.04.17-.11.02-.21.05-.32.08-.02,0-.03.01-.05.02-.07.01-.14.03-.21.06-.21.06-.41.14-.61.23-.23.09-.45.2-.66.32-.22.11-.42.24-.62.38-.16.1-.3101.21-.45.33-.08.06-.16.12-.24.19-.15.13-.29.2599-.4301.4-.17.17-.33.35-.49.53-.31.38-.58.78-.81,1.21-.12.21-.23.43-.32.66-.1.22-.18.44-.25.67-.08.23-.14.47-.19.71h-6.2c-.06-.26-.12-.5-.2-.75-.07-.21-.15-.42-.24-.63-.09-.23-.2-.45-.32-.66-.23-.43-.5-.83-.81-1.21-.16-.18-.32-.36-.49-.53-.17-.17-.35-.33-.53-.49-.01,0-.02-.02-.02-.02-.18-.14-.37-.28-.57-.41-.2-.14-.4-.27-.62-.38-.21-.12-.43-.23-.66-.32-.2-.09-.4-.17-.61-.23-.07-.03-.14-.05-.21-.06-.11-.04-.21-.07-.32-.09-.14-.04-.29-.07-.44-.09-.44-.09-.89-.13-1.36-.13-4.17,0-7.56,3.39-7.56,7.56,0,.18.01.35.02.53.0099.21.04.41.07.61.02.14.04.29.0699.42.02.09.04.18.06.26.05.21.1201.43.19.64.14.4.31.79.51,1.17.18.33.39.64.61.94.35.45.7401.87,1.1801,1.23l-5.29,8.66c-.36.6-1.02.98-1.73.98h-7.76c-.61,0-1.19-.27-1.58-.74-.39-.47-.54-1.09-.43-1.69l5.64-29.1c.67-3.33,3.62-5.75,7.02-5.75h39.13c3.41,0,6.36,2.43,7.02,5.77l1.24,6.58c.16.84.98,1.4,1.82,1.24.85-.16,1.41-.98,1.25-1.82l-1.25-6.59c-.94-4.81-5.18-8.3-10.08-8.3h-.22c.08-.19.13-.4.13-.62V5.34c0-2.95-2.39-5.34-5.34-5.34H5.34C2.4,0,0,2.39,0,5.34v76.19c0,2.81,2.28,5.09,5.09,5.09h33.41l-.55,2.85c-.3,1.53.1,3.08,1.08,4.28.99,1.19,2.44,1.87,3.99,1.87h7.76c1.8,0,3.49-.95,4.4-2.48l5.3799-8.8199c.67.2,1.3701.3,2.09.3,3.63,0,6.68-2.58,7.4-6h6.2c.72,3.42,3.77,6,7.4,6,.72,0,1.43-.1,2.1-.29l5.7401,8.92c.96,1.49,2.58,2.37,4.35,2.37h7.46c1.55,0,3-.68,3.98-1.87.98-1.18,1.38-2.73,1.1-4.25ZM3.12,5.34c0-1.22,1-2.22,2.22-2.22h82.03c1.22,0,2.22,1,2.22,2.22v9.24H3.12V5.34Zm35.9901,78.16H5.09c-1.09,0-1.97-.88-1.97-1.97V17.71h86.47v33.77c0,.22.05.43.13.62h-36.05c-4.89,0-9.13,3.47-10.08,8.26l-4.48,23.14Zm23.54-2c-.71,0-1.4-.17-2.02-.49-1.49-.77-2.42-2.28-2.42-3.95,0-2.45,1.99-4.44,4.44-4.44s4.44,1.99,4.44,4.44-1.99,4.44-4.44,4.44Zm23-.48c-.6.31-1.29.48-2,.48-2.45,0-4.44-1.99-4.44-4.44s1.99-4.44,4.44-4.44,4.44,1.99,4.44,4.44c0,1.68-.93,3.2-2.44,3.96Z" style="fill:#fff;"/><path d="m55.7311,10.4145h-5.209c-.8628,0-1.5625-.6997-1.5625-1.5625s.6997-1.5625,1.5625-1.5625h5.209c.8628,0,1.5625.6997,1.5625,1.5625s-.6997,1.5625-1.5625,1.5625Z" style="fill:#fff;"/><path d="m69.274,10.4145h-5.209c-.8628,0-1.5625-.6997-1.5625-1.5625s.6997-1.5625,1.5625-1.5625h5.209c.8633,0,1.5625.6997,1.5625,1.5625s-.6992,1.5625-1.5625,1.5625Z" style="fill:#fff;"/><path d="m82.816,10.4145h-5.209c-.8633,0-1.5625-.6997-1.5625-1.5625s.6992-1.5625,1.5625-1.5625h5.209c.8633,0,1.5625.6997,1.5625,1.5625s-.6992,1.5625-1.5625,1.5625Z" style="fill:#fff;"/><path d="m69.29,73.46c-.23-.43-.5-.83-.81-1.21.31.37.59.78.81,1.21Z" style="fill:#fff;"/><path d="m77.82,72.25c-.31.38-.58.78-.81,1.21.22-.43.5-.84.81-1.21Z" style="fill:#fff;"/></g></g></svg>